<?xml version="1.0" encoding="UTF-8"?>
<svg viewBox="0, 0, 1100, 800" xmlns="http://www.w3.org/2000/svg">
 <defs>
  <linearGradient id="a" x1="349.16" x2="941.02" gradientUnits="userSpaceOnUse">
   <stop stop-color="#e12e00" offset="0"/>
   <stop stop-color="#ff8626" offset="1"/>
  </linearGradient>
 </defs>
 <path d="m451.56 531.24s-328.71-55.203-332.9-146.98c-4.812-58.227 52-74.827 52-74.827l25.284-38.689c17.214 6.126 34.159 13.069 50.655 20.933 8.578 4.09 17.697 8.48 24.901 14.821 14.152 13.516 82-39 81.387-75.168-1.242-18.239-21.887-29.166-36.33-35.974-18.625-8.778-58.632-19.455-58.632-19.455s46.641-58.467 129.33-32.403c200.24 63.113 318.24 142.65 361.24 155.32s98-69.541 136-67.541 41.973 28.596 71 46.717-42 89.542-42 89.542 36.293 7.872 29.578 28.958c-8.285 63.914-80.176 80.168-80.176 80.168s-85.657 46.798-149.74 52.165-261.61 2.405-261.61 2.405z" fill="#fff"/>
 <path d="m454.115,527.448-.058-.01-.45-.076-.903-.156-1.347-.236-1.773-.314-2.187-.393-2.584-.471-2.968-.549-5.147-.97-8.063-1.562-9.317-1.863-10.46-2.163-11.484-2.459-12.387-2.751-13.169-3.04-13.832-3.325-14.374-3.606-14.796-3.883-22.758-6.345-30.695-9.395-22.682-7.703-14.745-5.439-14.371-5.702-13.826-5.94-13.163-6.174-12.381-6.401-11.478-6.62-10.462-6.832-9.328-7.036-8.086-7.233-6.735-7.422-4.071-5.643-2.234-3.8-1.873-3.89-1.468-3.935-1.049-3.984-.618-4.032-.138-1.979 .001.011-.181-2.698-.098-5.122 .225-4.85 .523-4.615 .799-4.383 1.052-4.158 2.017-5.86 3.378-7.06 3.983-6.21 4.427-5.44 4.701-4.71 4.804-4.023 4.743-3.375 4.515-2.767 4.121-2.198 3.563-1.666 2.838-1.171 1.946-.71 .895-.29-.099.034c1.637-.496 2.863-1.269 3.457-2.179l25.282-38.686-12.355,1.974 12.854,4.748 18.778,7.611 12.257,5.442 6.048,2.833-.064-.03 3.235,1.55 6.383,3.201 6.035,3.43 5.532,3.819 2.415,2.011-.026-.022 .702.585 2.593,1.535 3.958,1.327 4.743.618 4.73-.143 4.312-.686 5.65-1.608 7.352-3.084 7.41-4.035 7.416-4.838 7.379-5.554 7.225-6.171 6.924-6.682 6.46-7.085 5.825-7.373 5.016-7.553 4.028-7.623 2.856-7.584 1.268-5.647 .371-3.726 .03-1.873c.001-.076-.003-.153-.011-.23l-.172-1.687-.699-3.455-1.14-3.359-1.538-3.194-2.918-4.418-4.882-5.361-5.753-4.798-6.231-4.203-6.361-3.646-6.152-3.13-2.945-1.409-.2-.092-3.725-1.664-8.975-3.548-9.879-3.479-9.976-3.239-9.397-2.876-6.267-1.84-3.635-1.042-3.078-.867-2.45-.68-1.732-.474-.925-.25-.141-.038 3.639,5.022 .033-.042 .244-.293 .503-.585 .766-.857 1.027-1.105 1.286-1.325 2.423-2.359 4.112-3.67 5.077-4.061 6.025-4.251 6.933-4.229 7.794-3.996 8.593-3.555 9.316-2.915 7.272-1.624 4.95-.791 5.262-.578 5.429-.311 5.616-.027 5.829.28 6.063.614 6.326.979 6.601,1.377 6.889,1.811 3.413,1.038-.165-.051 9.325,2.97 18.197,5.974 17.694,6.039 17.219,6.096 16.748,6.141 16.279,6.169 15.809,6.182 15.341,6.18 14.875,6.163 14.409,6.131 13.945,6.084 13.483,6.021 13.021,5.944 12.561,5.851 12.102,5.744 11.645,5.62 11.188,5.483 10.736,5.33 10.281,5.162 9.832,4.98 9.383,4.782 8.936,4.569 8.492,4.343 8.05,4.101 7.613,3.846 7.181,3.577 6.752,3.293 6.331,2.997 5.922,2.69 5.528,2.37 5.159,2.042 4.829,1.705 2.451.769c.175.055.355.106.538.153l2.021.525 5.365.912 6.032.322 6.005-.37 8.212-1.562 10.327-3.548 9.854-4.835 9.474-5.75 13.832-9.793 18.088-14.098 13.162-10.211 8.439-6.095 8.124-5.238 7.651-4.075 5.121-2.048 2.87-.805 2.562-.441 1.995-.064 .257.079-.885-.041 3.459.258 5.325.811 4.355,1.164 3.97,1.53 3.743,1.912 3.594,2.299 5.259,4.191 6.7,6.545 6.858,7.291 7.686,7.681 6.77,5.805 5.214,3.815 2.902,1.897-.133-.089 1.287.887 1.584,1.546 1.116,1.716 .83,2.049 .496,2.364 .135,2.645-.229,2.892-.585,3.103-1.515,5.02-3.051,7.109-4.006,7.389-4.73,7.5-5.206,7.415-5.431,7.135-5.404,6.668-5.125,6.012-3.504,3.96-2.116,2.338-1.911,2.075-1.668,1.786-1.394,1.47-1.089,1.133-.752.773-.383.39-.041.041c-1.962,1.98-.343,4.38 3.615,5.361l.29.068 .1.022 .595.144 1.198.318 1.724.506 2.137.699 2.434.896 4.056,1.762 5.372,3.079 3.373,2.748 1.819,2.041 1.5,2.35 .992,2.597 .385,2.867-.331,3.166-.445,1.592c-.02.076-.035.151-.047.227l-.434,2.96-1.118,5.613-1.439,5.305-1.738,5.038-2.013,4.776-2.262,4.522-3.828,6.357-5.748,7.631-6.277,6.688-6.631,5.835-6.794,5.032-6.766,4.279-6.548,3.574-6.142,2.918-5.544,2.307-4.756,1.742-3.773,1.22-2.019.585-.925.248-.619.157-.245.058 .074-.018c-.963.222-1.829.538-2.546.928l-.06.033-.471.254-.935.5-1.386.734-1.817.949-2.229,1.151-2.62,1.335-2.992,1.503-3.345,1.655-3.675,1.791-6.104,2.91-9.115,4.204-10.072,4.449-10.876,4.569-11.519,4.558-11.996,4.417-12.3,4.144-12.432,3.742-12.378,3.209-12.13,2.549-11.666,1.768-5.328.528 .351-.032-3.096.245-6.574.442-7.254.398-7.924.359-8.525.319-9.056.282-14.453.355-20.511.356-21.472.236-21.954.133-21.947.045-21.449-.025-20.466-.08-14.405-.086-9.041-.065-8.526-.07-7.945-.073-7.305-.072-6.602-.071-5.839-.066-5.016-.061-4.134-.053-3.187-.042-2.181-.031-1.117-.016-.136-.002c-4.416-.066-8.103,1.67-8.236,3.878s3.341,4.052 7.757,4.118l.151.003 1.132.016 2.201.031 3.207.042 4.151.053 5.038.061 5.862.067 6.627.071 7.331.073 7.973.073 8.557.07 9.084.066 14.47.086 20.552.08 21.554.025 22.074-.046 22.114-.134 21.674-.239 20.743-.361 14.662-.361 9.258-.288 8.771-.33 8.231-.374 7.641-.421 6.939-.469 3.105-.246 .35-.032 6.807-.716 13.204-2.047 13.281-2.82 13.259-3.456 13.118-3.96 12.846-4.337 12.435-4.585 11.88-4.705 11.179-4.699 10.325-4.563 9.308-4.295 6.229-2.97 3.767-1.836 3.427-1.697 3.071-1.542 2.694-1.373 2.298-1.187 1.882-.984 1.447-.765 .992-.531 .512-.276 .064-.035-2.545.928 .178-.042 .571-.139 .965-.248 1.377-.375 2.672-.787 4.534-1.483 5.53-2.046 6.327-2.656 6.916-3.314 7.299-4.017 7.474-4.765 7.441-5.555 7.203-6.389 6.759-7.263 6.093-8.14 4.029-6.722 2.396-4.813 2.123-5.066 1.826-5.323 1.504-5.585 1.154-5.819 .435-2.962-.046.227 .566-2.285 .297-4.129-.654-3.834-1.484-3.524-2.177-3.205-2.829-2.965-4.91-3.767-6.902-3.832-5.055-2.159-3.158-1.145-2.799-.903-2.324-.672-1.731-.452-.98-.233-.108-.024 3.905,5.428 .062-.063 .415-.422 .785-.808 1.124-1.169 1.431-1.511 1.708-1.827 1.953-2.122 2.172-2.4 3.59-4.059 5.235-6.145 5.53-6.827 5.575-7.332 5.369-7.66 4.915-7.817 4.206-7.804 3.228-7.596 1.624-5.469 .642-3.545 .233-3.43-.23-3.303-.761-3.165-1.38-3.015-2.109-2.838-2.72-2.451-1.289-.889-.133-.089-2.397-1.548-4.591-3.325-6.275-5.348-7.517-7.506-7.108-7.546-7.415-7.169-6.258-4.891-4.852-3.001-5.519-2.67-6.281-2.238-7.058-1.695-7.424-1.04-3.47-.259c-.293-.021-.589-.035-.885-.041l-3.33.014-5.324.513-4.939,1.023-4.805,1.483-6.691,2.783-8.604,4.635-8.63,5.583-8.729,6.313-13.183,10.227-17.696,13.806-13.129,9.332-8.397,5.156-7.839,3.984-7.099,2.659-4.633,1.064-2.431.293-2.29.034-2.833-.387-2.027-.526 .538.153-1.69-.517-4.114-1.439-4.666-1.839-5.184-2.218-5.677-2.576-6.16-2.915-6.631-3.234-7.1-3.536-7.565-3.822-8.03-4.09-8.492-4.343-8.955-4.579-9.418-4.8-9.881-5.005-10.346-5.194-10.809-5.366-11.276-5.525-11.742-5.668-12.21-5.794-12.68-5.906-13.15-6.002-13.622-6.083-14.096-6.149-14.569-6.198-15.045-6.233-15.523-6.252-16.002-6.256-16.481-6.244-16.963-6.218-17.447-6.176-17.929-6.118-18.386-6.035-9.328-2.971-.165-.051-4.286-1.283-8.192-2.114-8.05-1.635-7.895-1.174-7.72-.732-7.515-.31-7.284.085-7.023.45-6.739.782-6.596,1.115-9.183,2.142-10.994,3.527-9.826,4.126-8.703,4.506-7.609,4.674-6.533,4.634-5.465,4.388-4.384,3.924-2.587,2.523-1.399,1.444-1.127,1.215-.857.96-.581.678-.302.364-.034.043c-1.528,1.893.041,4.057 3.639,5.022l.09.024 .852.23 1.652.452 2.359.654 2.977.839 3.486.998 6.02,1.767 9.038,2.762 9.485,3.074 9.171,3.215 8.223,3.232 3.73,1.666-.2-.092 2.605,1.241 5.517,2.789 5.572,3.158 5.365,3.56 4.905,3.999 4.237,4.545 2.553,3.784 1.315,2.66 .992,2.814 .636,3.047 .172,1.69-.01-.23-.012,1.541-.292,3.23-1.092,5.054-2.601,7.018-3.744,7.144-4.713,7.134-5.502,6.994-6.108,6.722-6.527,6.322-6.75,5.789-6.764,5.122-6.537,4.31-5.993,3.346-5.145,2.288-2.913.957-.927.27-.08.176 .405.268 .137.279-.665-.242-.703-.586-.026-.022-3.159-2.568-6.46-4.397-6.704-3.787-6.64-3.326-3.24-1.553-.063-.03-6.366-2.978-12.805-5.675-19.341-7.828-12.862-4.751c-.688-.254-1.452-.451-2.265-.584-4.199-.686-8.717.459-10.09,2.559l-25.285,38.69 3.457-2.179-.424.133-1.581.528-2.671.995-3.575,1.497-4.3,2.036-4.842,2.613-5.204,3.224-5.383,3.871-5.382,4.553-5.2,5.265-4.84,6.011-4.304,6.787-3.582,7.56-2.122,6.213-1.113,4.436-.839,4.657-.544,4.88-.228,5.111 .106,5.312 .181,2.7v.011l.177,2.31 .709,4.464 1.184,4.404 1.641,4.343 2.082,4.278 2.537,4.258 4.551,6.233 7.338,8.016 8.715,7.747 9.959,7.477 11.074,7.208 12.065,6.94 12.934,6.673 13.681,6.407 14.309,6.14 14.816,5.871 15.255,5.62 23.319,7.908 31.251,9.558 23.115,6.442 15.056,3.95 14.617,3.665 14.058,3.378 13.381,3.088 12.583,2.794 11.668,2.498 10.633,2.198 9.48,1.895 8.197,1.588 5.24.987 3.039.562 2.654.484 2.254.405 1.838.326 1.407.246 .961.165 .497.085 .062.011c4.187.705 8.725-.419 10.137-2.513s-.837-4.362-5.024-5.068"/>
 <path d="m170.66 309.44s-56.812 16.6-52 74.827c4.188 91.773 332.9 146.98 332.9 146.98s197.53 2.963 261.61-2.405 149.74-52.165 149.74-52.165-401.69-15.168-617.85-105.84c-83.921-35.203-74.393-61.391-74.393-61.391z" fill="#ff6100"/>
 <path d="m166.508,306.015-.159.049-1.498.491-2.654.974-3.567,1.475-4.301,2.015-4.849,2.589-5.221,3.204-5.406,3.851-5.415,4.536-5.238,5.252-4.883,6.003-4.35,6.785-3.641,7.598-2.172,6.287-1.135,4.473-.849,4.659-.553,4.884-.237,5.114 .1,5.347 .185,2.794c0,.005 0,.009.001.014l.157,2.143 .682,4.413 1.162,4.41 1.622,4.35 2.065,4.287 2.49,4.223 4.462,6.167 7.277,8.014 8.701,7.786 9.959,7.515 11.082,7.24 12.079,6.968 12.95,6.697 13.699,6.427 14.328,6.156 14.833,5.886 15.224,5.615 23.255,7.896 31.291,9.578 23.215,6.476 15.105,3.965 14.626,3.669 14.065,3.381 13.389,3.09 12.59,2.797 11.674,2.5 10.639,2.2 9.486,1.896 8.21,1.591 5.261.992 3.05.564 2.654.484 2.254.405 1.84.326 1.408.246 .965.167 .503.085 .083.014c.75.127 1.532.197 2.323.209l.138.002 1.132.016 2.199.031 3.207.042 4.152.053 5.035.061 5.863.067 6.626.071 7.33.073 7.972.072 8.556.071 9.077.065 14.46.087 20.541.08 21.545.025 22.063-.045 22.097-.134 21.653-.238 20.728-.36 14.673-.361 9.262-.288 8.748-.328 8.201-.371 7.602-.418 6.95-.467 3.282-.259 .358-.032 6.065-.622 13.176-2.002 13.473-2.824 13.395-3.468 13.214-3.974 12.916-4.35 12.488-4.597 11.92-4.716 11.208-4.707 10.349-4.571 9.339-4.307 6.263-2.986 3.783-1.842 3.431-1.699 3.073-1.544 2.697-1.373 2.301-1.188 1.883-.984 1.449-.767 .995-.531 .519-.281 .083-.045c2.989-1.627 2.774-4.157-.48-5.652-1.321-.607-3.013-.974-4.803-1.042l-.069-.003-.562-.022-1.124-.047-1.677-.071-2.22-.099-2.745-.127-3.258-.157-3.759-.188-4.247-.221-4.72-.254-5.18-.289-5.627-.327-6.058-.364-6.479-.403-10.485-.683-15.319-1.061-16.748-1.242-18.075-1.435-19.294-1.64-20.407-1.854-21.412-2.081-22.309-2.317-23.096-2.565-23.776-2.823-24.35-3.093-24.813-3.373-25.171-3.664-38.222-6.071-38.381-6.78-25.469-4.926-25.325-5.277-25.031-5.631-24.628-5.994-24.118-6.367-23.5-6.752-22.772-7.143-21.937-7.546-20.997-7.957-10.034-4.104 .118.05-3.864-1.643-7.208-3.193-6.649-3.114-6.145-3.048-5.664-2.98-5.203-2.908-4.76-2.833-4.337-2.755-3.934-2.673-3.55-2.589-4.685-3.749-5.071-4.669-3.852-4.25-2.826-3.837-1.958-3.404-1.241-2.95-.676-2.474-.262-1.978 .005-1.461 .125-.924 .1-.367-.024.097-15.896-.643v-.001c-.002,2.209 3.578,4.001 7.996,4.002s8.002-1.789 8.004-3.999v-.001c.001-1.961-2.843-3.634-6.715-3.949-4.361-.354-8.472,1.126-9.181,3.306l-.073.249-.183.834-.153,1.429 .035,1.993 .378,2.527 .874,3.033 1.523,3.509 2.32,3.954 3.268,4.371 4.359,4.759 5.56,5.088 5.057,4.032 3.858,2.805 4.249,2.881 4.658,2.952 5.085,3.02 5.53,3.086 5.994,3.147 6.475,3.207 6.974,3.263 7.452,3.298 3.868,1.644 .118.05 10.498,4.286 21.591,8.172 22.503,7.731 23.304,7.304 23.997,6.888 24.587,6.487 25.067,6.097 25.44,5.719 25.709,5.354 25.91,5.008 38.866,6.861 38.596,6.128 25.442,3.702 25.072,3.407 24.591,3.123 24.006,2.85 23.311,2.588 22.51,2.337 21.603,2.099 20.588,1.87 19.467,1.654 18.235,1.447 16.901,1.254 15.448,1.069 10.572.688 6.547.408 6.127.368 5.691.33 5.243.293 4.781.257 4.307.224 3.819.191 3.318.16 2.801.129 2.272.101 1.731.074 1.175.049 .6.023 .078.003-5.283-6.694-.042.023-.463.25-.933.499-1.384.732-1.816.95-2.226,1.149-2.618,1.334-2.989,1.502-3.341,1.654-3.659,1.783-6.07,2.895-9.084,4.192-10.048,4.441-10.847,4.56-11.479,4.548-11.943,4.405-12.23,4.131-12.335,3.728-12.243,3.197-11.937,2.545-11.695,1.813-6.069.622 .358-.033-2.918.233-6.564.443-7.293.402-7.955.361-8.547.322-9.052.282-14.442.355-20.526.357-21.493.237-21.97.134-21.958.045-21.459-.025-20.477-.08-14.416-.086-9.047-.065-8.527-.07-7.946-.073-7.305-.072-6.603-.071-5.84-.066-5.018-.061-4.133-.053-3.187-.042-2.183-.031-1.117-.016-.149-.002 2.323.208-.036-.006-.444-.075-.901-.156-1.344-.235-1.772-.314-2.186-.393-2.585-.471-2.957-.547-5.126-.966-8.05-1.558-9.311-1.862-10.455-2.161-11.477-2.457-12.38-2.749-13.161-3.037-13.825-3.321-14.365-3.603-14.748-3.868-22.657-6.312-30.655-9.374-22.746-7.715-14.776-5.444-14.354-5.688-13.808-5.923-13.144-6.154-12.364-6.377-11.465-6.592-10.454-6.8-9.328-6.999-8.099-7.192-6.796-7.425-4.161-5.709-2.281-3.835-1.89-3.88-1.487-3.929-1.071-3.978-.645-4.083-.157-2.146 .001.015-.177-2.605-.104-5.087 .217-4.847 .513-4.612 .789-4.38 1.029-4.121 1.968-5.786 3.319-7.021 3.937-6.214 4.384-5.447 4.663-4.724 4.772-4.038 4.719-3.396 4.498-2.788 4.114-2.22 3.562-1.688 2.846-1.192 1.964-.732 .977-.327 .166-.05c3.777-1.147 4.979-3.607 2.686-5.495s-7.213-2.49-10.99-1.344"/>
 <path d="m244.06 209.26 42.199-14.971" fill="none" stroke="#aab6ff" stroke-width="8"/>
 <path d="m237.92 229.35 68.605-22.739" fill="none" stroke="#aab6ff" stroke-width="8"/>
 <path d="m267.83 290.89 42.273-12.888" fill="none" stroke="#aab6ff" stroke-width="8"/>
 <path d="m259.12 237.78 42.272-12.888" fill="none" stroke="#aab6ff" stroke-width="8"/>
 <path d="m779.836,315.563 1.601,1.056 4.182,2.536 5.242,2.958 6.124,3.289 6.853,3.541 7.423,3.712 11.843,5.702 16.282,7.419 11.889,5.065 7.476,2.984 6.915,2.564 6.222,2.07 5.408,1.498 3.554.717 2.235.266 1.221.057c1.653.054 3.08-.573 3.188-1.4s-1.146-1.54-2.8-1.594l-.318.007-1.313-.124-2.867-.556-4.987-1.37-5.969-1.981-6.746-2.499-7.327-2.922-11.739-5-16.162-7.363-11.762-5.661-7.354-3.677-6.774-3.5-6.025-3.234-5.102-2.876-4.029-2.44-1.603-1.057c-1.001-.66-2.883-.79-4.203-.289s-1.579,1.442-.578,2.102"/>
 <path d="m370.29 545.13s64.257 33.332 116.32 9.658c60.464-41.935 68.242-50.042 12.823-90.051-28.968-36.089-116.3-17.062-116.3-17.062" fill="#eaeaea"/>
 <path d="m366.704,546.877 .045.023 .402.203 .768.379 1.116.535 2.278,1.051 4.119,1.792 5.27,2.122 6.303,2.314 7.231,2.375 8.059,2.302 8.79,2.096 9.425,1.753 9.969,1.269 10.417.641 10.753-.143 10.953-1.081 10.974-2.167 10.799-3.383 5.439-2.248c.321-.134.607-.288.851-.457l2.795-1.941 5.366-3.744 5.061-3.57 4.755-3.406 4.447-3.257 4.139-3.119 5.612-4.44 6.383-5.557 5.129-5.256 3.834-5.056 2.49-4.956 1.084-4.945-.378-5-1.862-5.105-3.33-5.271-3.464-4.138-2.759-2.857-3.088-2.925-3.44-3.034-3.794-3.155-4.149-3.289-4.506-3.438-4.866-3.6-2.576-1.871 .485.442-1.399-1.651-3.168-3.203-3.546-2.948-3.863-2.658-4.15-2.376-4.406-2.102-6.925-2.63-9.826-2.677-10.32-1.83-10.456-1.066-10.348-.43-10.026.08-9.498.468-8.769.739-7.84.896-6.705.94-5.37.875-3.048.551-1.51.291-1.038.209-.561.117-.109.023c-2.536.546-3.708,2.017-2.616,3.285s4.033,1.854 6.57,1.308l.017-.004 .434-.091 .9-.182 1.318-.255 2.746-.499 4.973-.814 6.237-.881 7.275-.839 8.093-.694 8.683-.444 9.047-.095 9.189.349 9.122.885 8.868,1.51 8.548,2.268 6.064,2.265 3.776,1.775 3.588,2.026 3.378,2.294 3.145,2.582 2.919,2.932 1.4,1.653c.132.155.294.303.485.441l2.527,1.835 4.787,3.541 4.412,3.364 4.038,3.2 3.666,3.045 3.296,2.902 2.928,2.767 2.543,2.619 3.156,3.72 3.026,4.67 1.701,4.401 .424,4.261-.846,4.265-2.141,4.396-3.467,4.63-4.81,4.956-6.164,5.375-5.492,4.347-4.063,3.063-4.389,3.214-4.713,3.377-5.032,3.549-5.352,3.735-2.797,1.942 .851-.458-4.388,1.863-9.175,2.966-9.235,1.906-9.268.983-9.255.175-9.156-.524-8.943-1.11-8.602-1.58-8.13-1.923-7.529-2.14-6.799-2.225-5.949-2.179-4.977-1.999-3.899-1.693-2.14-.986-1.016-.487-.68-.335-.337-.17-.048-.025c-1.924-.99-5.09-1.012-7.07-.05s-2.025,2.545-.1,3.536"/>
 <path d="m370.29 545.13c-13.252-1.746-21.12-24.977-17.574-51.889 3.545-26.911 17.162-47.312 30.414-45.566s21.12 24.978 17.574 51.889-17.162 47.312-30.414 45.566z" fill="#eaeaea"/>
 <path d="m372.018,542.788-1.225-.226-1.232-.524-1.283-.862-1.563-1.373-1.631-1.866-1.582-2.314-1.469-2.718-1.321-3.081-1.151-3.411-.962-3.708-1.068-6.071-.65-8.848 .301-9.503 .526-4.904-.008.062 .78-4.965 2.188-9.286 2.928-8.359 3.54-7.268 2.953-4.587 2.058-2.588 2.124-2.218 2.129-1.786 2.059-1.315 1.861-.808 1.447-.299 .831.093-.259.093-.938-.123 1.223.226 1.234.525 1.281.862 1.564,1.372 1.631,1.866 1.582,2.314 1.469,2.718 1.321,3.082 1.15,3.411 .963,3.707 1.067,6.071 .651,8.849-.301,9.502-.526,4.905 .008-.062-.78,4.964-2.188,9.286-2.928,8.359-3.54,7.269-2.953,4.587-2.058,2.587-2.125,2.218-2.128,1.786-2.059,1.315-1.861.808-1.447.3-.832-.093 .259-.094 4.172,2.158 .001.002c-.342-1.371-2.841-2.343-5.581-2.172s-4.684,1.42-4.343,2.79l.001.002c.276,1.103 1.976,1.982 4.172,2.158l2.745.105 4.138-.452 3.494-1.028 3.021-1.444 2.733-1.814 2.543-2.176 2.396-2.529 2.281-2.9 3.148-4.933 3.673-7.588 3.009-8.635 2.226-9.479 .781-4.967c.003-.02.006-.041.008-.062l.539-5.092 .295-9.765-.682-9.103-1.112-6.278-1.02-3.896-1.234-3.63-1.448-3.342-1.667-3.039-1.905-2.722-2.186-2.398-2.569-2.067-3.147-1.7-3.474-1.109-1.229-.227c-.304-.056-.618-.097-.938-.122l-2.746-.105-4.139.451-3.493,1.028-3.021,1.444-2.733,1.815-2.543,2.175-2.396,2.53-2.281,2.9-3.148,4.933-3.673,7.588-3.009,8.635-2.226,9.478-.781,4.967c-.003.021-.006.042-.008.062l-.539,5.092-.295,9.766 .682,9.102 1.112,6.278 1.02,3.897 1.234,3.629 1.448,3.343 1.668,3.039 1.904,2.721 2.186,2.398 2.569,2.067 3.146,1.701 3.476,1.109 1.227.226c2.591.477 5.466-.186 6.421-1.482 .954-1.295-.372-2.732-2.963-3.21"/>
 <path d="m374.039,476.721-.025-1.212 .329-2.214 .741-2.021 1.072-1.787 1.303-1.451 1.386-1.003 1.183-.434 .398.149-.456.31 .328.553 1.117,1.45 1.233,2.486 1.044,3.54 .705,4.636 .264,5.791-.145,5.134-.278,3.82-.197,2.029 .002-.016-.433,3.769-1.001,6.719-1.161,5.704-1.292,4.757-1.395,3.871-1.461,3.04-1.485,2.258-1.437,1.517-1.245.801-.716.129 .248-.258 .474-.178-.795-.703-1.652-1.991-.663-1.202c-.582-.994-2.664-1.563-4.652-1.273s-3.128,1.332-2.546,2.326l1.039,1.707 2.811,2.892 3.276,1.64 3.435.514 3.347-.409 2.468-.994 1.974-1.422 1.765-1.933 1.647-2.548 1.55-3.249 1.444-4.03 1.323-4.883 1.178-5.804 1.01-6.782 .433-3.771 .002-.016 .2-2.075 .282-3.903 .144-5.273-.284-5.992-.766-4.906-1.199-3.921-1.629-3.057-2.213-2.337-3.315-1.639-4.263-.451-3.418.66-2.49,1.185-1.993,1.562-1.629,1.899-1.26,2.185-.838,2.412-.347,2.518 .024,1.214c.022,1.036 1.718,1.866 3.789,1.856s3.732-.859 3.711-1.895"/>
 <path d="m386.43 482.74c-28.5-3.5-31 32.5-5.5 36" fill="#ff6100"/>
 <path d="m387.041,480.891-2.595-.215-5.679.195-5.395,1.154-4.457,1.968-3.454,2.538-2.573,2.942-1.803,3.238-1.094,3.441-.414,3.555 .256,3.575 .928,3.503 1.61,3.337 2.319,3.079 3.077,2.726 3.918,2.274 4.871,1.684 3.088.617c1.946.355 4.098-.146 4.808-1.118s-.291-2.05-2.237-2.405l-1.529-.224-3.382-1.038-3.031-1.655-2.576-2.198-2.04-2.632-1.463-2.947-.866-3.145-.263-3.224 .337-3.187 .918-3.03 1.466-2.754 1.947-2.357 2.311-1.859 2.549-1.317 2.843-.806 3.786-.23 2.597.215c2.043.168 3.973-.523 4.311-1.545s-1.046-1.986-3.089-2.155"/>
 <path d="m451.67 636.18s64.257 33.332 116.32 9.658c60.463-41.935 68.241-50.042 12.822-90.051-28.968-36.089-116.3-17.062-116.3-17.062" fill="#eaeaea"/>
 <path d="m448.085,637.927 .045.024 .402.203 .768.379 1.116.534 2.278,1.052 4.12,1.792 5.269,2.122 6.303,2.314 7.231,2.375 8.059,2.302 8.79,2.096 9.425,1.753 9.969,1.269 10.417.64 10.753-.142 10.953-1.081 10.974-2.167 10.799-3.384 5.439-2.247c.321-.134.607-.288.852-.457l2.794-1.941 5.366-3.744 5.061-3.57 4.755-3.407 4.448-3.256 4.138-3.119 5.612-4.44 6.384-5.557 5.128-5.256 3.834-5.056 2.49-4.956 1.084-4.945-.378-5-1.862-5.105-3.33-5.271-3.464-4.138-2.759-2.857-3.088-2.926-3.44-3.033-3.794-3.155-4.149-3.289-4.506-3.439-4.866-3.6-2.576-1.87 .485.442-1.399-1.651-3.168-3.203-3.546-2.948-3.863-2.658-4.15-2.376-4.406-2.103-6.925-2.629-9.826-2.678-10.32-1.829-10.455-1.066-10.349-.43-10.026.08-9.498.468-8.769.739-7.839.896-6.706.94-5.37.875-3.048.551-1.51.291-1.038.208-.561.118-.109.023c-2.536.546-3.707,2.017-2.616,3.285s4.034,1.853 6.57,1.307l.017-.003 .435-.092 .899-.181 1.318-.255 2.746-.499 4.973-.814 6.237-.881 7.275-.839 8.093-.694 8.683-.444 9.047-.095 9.189.349 9.122.885 8.869,1.51 8.547,2.268 6.064,2.265 3.776,1.775 3.588,2.025 3.379,2.295 3.144,2.582 2.919,2.932 1.4,1.652c.132.155.294.303.485.442l2.527,1.834 4.787,3.541 4.412,3.365 4.038,3.2 3.666,3.045 3.296,2.902 2.929,2.767 2.543,2.619 3.155,3.72 3.026,4.67 1.701,4.4 .424,4.262-.846,4.265-2.141,4.396-3.466,4.63-4.811,4.956-6.164,5.374-5.492,4.347-4.063,3.064-4.389,3.214-4.712,3.376-5.033,3.55-5.352,3.735-2.797,1.942 .851-.458-4.388,1.863-9.174,2.966-9.235,1.906-9.269.983-9.255.175-9.156-.524-8.943-1.111-8.602-1.579-8.13-1.924-7.528-2.139-6.8-2.225-5.948-2.179-4.978-1.999-3.899-1.694-2.139-.986-1.017-.486-.68-.335-.337-.17-.048-.025c-1.924-.99-5.09-1.012-7.07-.05s-2.025,2.545-.1,3.535"/>
 <path d="m451.67 636.18c-13.251-1.746-21.12-24.977-17.574-51.889s17.162-47.312 30.414-45.566 21.12 24.977 17.574 51.889c-3.545 26.911-17.162 47.312-30.414 45.566z" fill="#eaeaea"/>
 <path d="m453.399,633.839-1.225-.226-1.232-.524-1.283-.863-1.563-1.372-1.631-1.866-1.582-2.314-1.469-2.718-1.321-3.082-1.151-3.411-.962-3.707-1.067-6.071-.651-8.849 .301-9.502 .526-4.905-.008.063 .78-4.965 2.188-9.286 2.928-8.359 3.54-7.269 2.953-4.586 2.058-2.588 2.125-2.218 2.128-1.786 2.059-1.315 1.861-.808 1.447-.3 .832.093-.26.094-.938-.123 1.223.226 1.234.525 1.281.861 1.564,1.373 1.631,1.866 1.582,2.314 1.469,2.718 1.321,3.082 1.151,3.41 .962,3.708 1.068,6.071 .65,8.849-.301,9.502-.526,4.905 .008-.062-.78,4.964-2.188,9.286-2.928,8.359-3.54,7.269-2.953,4.586-2.058,2.588-2.124,2.218-2.129,1.786-2.059,1.315-1.86.808-1.448.299-.832-.092 .259-.094 4.172,2.158 .001.001c-.342-1.37-2.841-2.342-5.581-2.171s-4.684,1.42-4.342,2.79v.002c.276,1.103 1.976,1.982 4.172,2.158l2.745.105 4.138-.452 3.494-1.028 3.021-1.444 2.733-1.814 2.543-2.176 2.396-2.529 2.281-2.901 3.148-4.933 3.673-7.588 3.009-8.635 2.226-9.478 .781-4.967c.003-.021.006-.041.008-.062l.539-5.092 .295-9.765-.682-9.103-1.112-6.278-1.02-3.897-1.234-3.629-1.448-3.343-1.667-3.038-1.905-2.722-2.186-2.398-2.569-2.067-3.147-1.701-3.474-1.108-1.229-.227c-.304-.056-.618-.097-.938-.122l-2.746-.106-4.139.452-3.493,1.028-3.021,1.444-2.733,1.814-2.543,2.176-2.396,2.53-2.281,2.9-3.148,4.933-3.673,7.588-3.009,8.635-2.226,9.478-.781,4.967c-.003.021-.006.041-.008.062l-.539,5.092-.295,9.765 .682,9.103 1.112,6.278 1.02,3.897 1.234,3.629 1.448,3.343 1.668,3.039 1.904,2.721 2.186,2.398 2.569,2.067 3.146,1.7 3.476,1.109 1.227.227c2.592.477 5.466-.186 6.421-1.482 .955-1.295-.372-2.733-2.963-3.21"/>
 <path d="m455.42,567.772-.025-1.212 .329-2.214 .741-2.021 1.072-1.787 1.303-1.451 1.386-1.003 1.184-.434 .397.149-.456.31 .328.553 1.117,1.45 1.233,2.485 1.044,3.541 .705,4.636 .264,5.791-.145,5.134-.278,3.82-.196,2.029 .001-.016-.433,3.769-1.001,6.719-1.161,5.704-1.292,4.757-1.395,3.871-1.461,3.04-1.485,2.258-1.437,1.517-1.245.801-.716.129 .248-.258 .474-.178-.795-.703-1.652-1.991-.663-1.202c-.582-.994-2.664-1.564-4.652-1.273s-3.128,1.332-2.546,2.326l1.039,1.707 2.812,2.892 3.275,1.64 3.435.514 3.347-.409 2.468-.994 1.974-1.422 1.765-1.933 1.647-2.548 1.55-3.249 1.445-4.031 1.322-4.882 1.178-5.804 1.01-6.782 .433-3.771 .002-.016 .201-2.075 .282-3.903 .143-5.273-.284-5.992-.766-4.906-1.199-3.921-1.629-3.057-2.213-2.337-3.315-1.639-4.263-.451-3.418.66-2.49,1.185-1.993,1.562-1.629,1.898-1.259,2.185-.839,2.412-.347,2.519 .024,1.214c.022,1.035 1.718,1.866 3.789,1.856s3.732-.859 3.711-1.895"/>
 <path d="m467.81 573.79c-28.5-3.5-31 32.5-5.5 36" fill="#ff6100"/>
 <path d="m468.422,571.942-2.594-.215-5.68.195-5.395,1.154-4.456,1.967-3.454,2.539-2.574,2.942-1.803,3.238-1.094,3.441-.414,3.555 .257,3.575 .927,3.503 1.61,3.337 2.319,3.078 3.077,2.727 3.918,2.273 4.871,1.685 3.088.617c1.946.355 4.099-.146 4.809-1.119s-.292-2.049-2.238-2.404l-1.529-.225-3.382-1.037-3.031-1.656-2.575-2.198-2.041-2.631-1.463-2.948-.866-3.144-.262-3.224 .336-3.187 .918-3.03 1.466-2.754 1.947-2.358 2.312-1.858 2.548-1.317 2.843-.806 3.786-.23 2.597.215c2.043.168 3.973-.523 4.311-1.545s-1.046-1.987-3.089-2.155"/>
 <path d="m139.29 418.57c52.041 23.743 105.76-3.289 105.76-47.748 0-4.615 2.519-84.356-76.337-58.69-53.346 25.143-51.155 57.247-49.103 73.114s19.679 33.324 19.679 33.324z" fill="#151515"/>
 <path d="m134.107,421.62 4.88,2.077 10.465,3.559 10.867,2.504 10.974,1.351 10.926.188 10.638-.961 10.095-2.047 9.359-3.035 8.507-3.913 7.606-4.703 6.67-5.418 5.699-6.076 4.685-6.681 3.618-7.241 2.488-7.754 1.29-8.221 .178-4.347c.001-.021.001-.041.001-.062l.005-.645-.007-2.505-.134-3.91-.386-5.031-.763-5.888-1.268-6.483-1.901-6.822-2.673-6.909-3.59-6.749-3.43-4.86-2.71-3.101-3.027-2.882-3.425-2.682-3.875-2.451-4.386-2.176-4.954-1.848-5.557-1.447-6.134-.963-6.629-.407-7,.191-7.276.797-7.514,1.398-7.765,1.996-4.149,1.273c-.504.156-.972.339-1.395.547l-4.838,2.376-9.087,5.037-7.985,5.224-6.838,5.315-5.769,5.364-4.78,5.372-3.874,5.342-3.054,5.272-2.322,5.166-1.679,5.022-1.123,4.843-.654,4.63-.274,4.38 .02,4.097 .392,5.51 .382,3.251c.005.047.012.093.021.139l.559,2.987 2.095,6.272 3.023,6.096 3.512,5.614 3.601,4.927 3.299,4.036 2.054,2.328 1.075,1.164 .769.805 .424.433 .078.079c1.977,1.975 6.783,2.776 10.734,1.787s5.552-3.391 3.575-5.367l-.023-.023-.349-.355-.686-.717-.961-1.038-1.882-2.125-3.082-3.757-3.362-4.575-3.253-5.154-2.769-5.489-1.942-5.684-.559-2.991 .021.139-.364-3.068-.382-5.247-.028-3.828 .242-4.067 .589-4.274 1.012-4.448 1.509-4.587 2.083-4.696 2.73-4.772 3.454-4.819 4.255-4.835 5.134-4.823 6.098-4.785 7.146-4.718 8.404-4.68 4.842-2.378-1.395.547 3.124-.98 6.084-1.618 5.427-1.078 4.788-.61 4.218-.212 3.774.127 3.484.443 3.307.765 3.187,1.103 3.063,1.448 2.911,1.782 2.731,2.09 2.529,2.366 2.275,2.554 3.049,4.247 3.34,6.207 2.534,6.492 1.824,6.495 1.224,6.222 .742,5.676 .376,4.862 .132,3.784 .007,2.461-.005.649 .002-.062-.134,3.885-1.14,7.581-2.216,7.085-3.2,6.537-4.082,5.937-4.856,5.287-5.511,4.59-6.039,3.854-6.437,3.093-6.725,2.325-6.964,1.566-7.235.811-7.599.018-8.04-.856-8.476-1.839-9.04-3.017-4.885-2.08c-3.365-1.431-8.414-1.228-11.277.455s-2.457,4.207.908,5.638"/>
 <path d="m401.85 401.67c-103.53 0 129.93 192 159.58 221.33s158.52 35.269 145.09 24c-49.334-41.373-60.959-172.98-16.667-178.93s-120.65-66.407-288-66.407z" fill="#fff"/>
 <path d="m401.85 401.67c-103.53 0 129.93 192 159.58 221.33s158.52 35.269 145.09 24c-49.334-41.373-60.959-172.98-16.667-178.93s-120.65-66.407-288-66.407z" fill="none" stroke="#000" stroke-width="8"/>
 <path d="m583.92,598.971c-14.17-8.513-13.938-21.913.521-29.928 14.458-8.016 37.666-7.612 51.837.901s13.937,21.913-.521,29.928c-14.458,8.016-37.666,7.612-51.837-.901z" fill="#e00"/>
 <path d="m583.92,598.971c-14.17-8.513-13.938-21.913.521-29.928 14.458-8.016 37.666-7.612 51.837.901s13.937,21.913-.521,29.928c-14.458,8.016-37.666,7.612-51.837-.901z" fill="none" stroke="#2c9900" stroke-width="14"/>
 <path d="m593.013,593.93c-9.248-5.556-9.096-14.302.34-19.533s24.583-4.968 33.832.588 9.096,14.301-.34,19.533-24.583,4.968-33.832-.588z" fill="#e00"/>
 <path d="m593.013,593.93c-9.248-5.556-9.096-14.302.34-19.533s24.583-4.968 33.832.588 9.096,14.301-.34,19.533-24.583,4.968-33.832-.588z" fill="none" stroke="#fff" stroke-width="10"/>
 <path d="m194.61 267.98c-0.375-1.243 64.462 23.393 78.615 36.908 14.152 13.516 82-39 81.386-75.168s-98.668-55.074-98.668-55.074l-61.333 93.334z" fill="#bfdbff"/>
 <path d="m194.61 267.98c-0.375-1.243 64.462 23.393 78.615 36.908 14.152 13.516 82-39 81.386-75.168s-98.668-55.074-98.668-55.074l-61.333 93.334z" fill="none" stroke="#001699" stroke-width="8"/>
 <path d="m858.33 442.5c-128.4 16-526.25-88.102-528.96-107.54-4.804-27.739 39-101.18 80-104.18 135 45.719 225.65 104.28 459.63 142.22 15.02 7.063 62.925 42.502-10.672 69.502z" fill="url(#a)"/>
 <path d="m901.73 283.11c16.153 1.413 23.692 14.472 16.84 29.167-6.853 14.695-25.502 25.463-41.655 24.049s-23.692-14.471-16.839-29.166c6.852-14.696 25.501-25.463 41.654-24.05z" fill="#e00"/>
 <path d="m901.73 283.11c16.153 1.413 23.692 14.472 16.84 29.167-6.853 14.695-25.502 25.463-41.655 24.049s-23.692-14.471-16.839-29.166c6.852-14.696 25.501-25.463 41.654-24.05z" fill="none" stroke="#2c9900" stroke-width="14"/>
 <path d="m897.42 292.35c10.543 0.923 15.463 9.445 10.991 19.036s-16.644 16.618-27.186 15.696-15.463-9.445-10.991-19.036 16.644-16.618 27.186-15.696z" fill="#e00"/>
 <path d="m897.42 292.35c10.543 0.923 15.463 9.445 10.991 19.036s-16.644 16.618-27.186 15.696-15.463-9.445-10.991-19.036 16.644-16.618 27.186-15.696z" fill="none" stroke="#fff" stroke-width="10"/>
 <path d="m392.21 262.53c14.793-5.805 51.53 7.291 59.809 16.674s-6.582 51.741-17.087 58.827-67.163-14.498-71.631-20.665 14.116-49.03 28.909-54.836z" fill="#bfdbff"/>
 <path d="m392.21 262.53c14.793-5.805 51.53 7.291 59.809 16.674s-6.582 51.741-17.087 58.827-67.163-14.498-71.631-20.665 14.116-49.03 28.909-54.836z" fill="none" stroke="#001699" stroke-width="8"/>
 <path d="m481.7 298.67c15.636-7.836 50.004 3.346 56 15.173s-6.098 45.237-19 49.827-44.667-6.174-54-13 1.363-44.164 17-52z" fill="#bfdbff"/>
 <path d="m481.7 298.67c15.636-7.836 50.004 3.346 56 15.173s-6.098 45.237-19 49.827-44.667-6.174-54-13 1.363-44.164 17-52z" fill="none" stroke="#001699" stroke-width="8"/>
 <path d="m565.31 325.6c14.363-7.577 45.928 3.236 51.436 14.673s-5.601 43.746-17.452 48.184-41.025-5.97-49.598-12.571 1.252-42.708 15.614-50.286z" fill="#bfdbff"/>
 <path d="m565.31 325.6c14.363-7.577 45.928 3.236 51.436 14.673s-5.601 43.746-17.452 48.184-41.025-5.97-49.598-12.571 1.252-42.708 15.614-50.286z" fill="none" stroke="#001699" stroke-width="8"/>
 <path d="m642.92 350.22c13.418-6.494 42.908 2.773 48.053 12.574s-5.232 37.491-16.304 41.295-38.328-5.116-46.337-10.774 1.17-36.601 14.588-43.095z" fill="#bfdbff"/>
 <path d="m642.92 350.22c13.418-6.494 42.908 2.773 48.053 12.574s-5.232 37.491-16.304 41.295-38.328-5.116-46.337-10.774 1.17-36.601 14.588-43.095z" fill="none" stroke="#001699" stroke-width="8"/>
 <path d="m783.26 383.42c10.172-5.098 32.53 2.176 36.43 9.87s-3.966 29.429-12.36 32.415-29.058-4.016-35.13-8.457 0.887-28.731 11.06-33.828z" fill="#bfdbff"/>
 <path d="m783.26 383.42c10.172-5.098 32.53 2.176 36.43 9.87s-3.966 29.429-12.36 32.415-29.058-4.016-35.13-8.457 0.887-28.731 11.06-33.828z" fill="none" stroke="#001699" stroke-width="8"/>
 <path d="m715.22 368.95c11.689-5.858 37.379 2.501 41.861 11.342s-4.558 33.815-14.202 37.246-33.39-4.614-40.366-9.717 1.019-33.014 12.707-38.871z" fill="#bfdbff"/>
 <path d="m715.22 368.95c11.689-5.858 37.379 2.501 41.861 11.342s-4.558 33.815-14.202 37.246-33.39-4.614-40.366-9.717 1.019-33.014 12.707-38.871z" fill="none" stroke="#001699" stroke-width="8"/>
 <path d="m842.56 391.1c9.398-4.71 30.054 2.011 33.658 9.119s-3.665 27.189-11.42 29.948-26.846-3.71-32.456-7.813 0.82-26.545 10.218-31.254z" fill="#bfdbff"/>
 <path d="m842.56 391.1c9.398-4.71 30.054 2.011 33.658 9.119s-3.665 27.189-11.42 29.948-26.846-3.71-32.456-7.813 0.82-26.545 10.218-31.254z" fill="none" stroke="#001699" stroke-width="8"/>
 <path d="m244.06 209.26 42.199-14.971" fill="none" stroke="#aab6ff" stroke-width="8"/>
 <path d="m237.92 229.35 68.605-22.739" fill="none" stroke="#aab6ff" stroke-width="8"/>
 <path d="m267.83 290.89 42.273-12.888" fill="none" stroke="#aab6ff" stroke-width="8"/>
 <path d="m259.12 237.78 42.272-12.888" fill="none" stroke="#aab6ff" stroke-width="8"/>
</svg>
