<?xml version="1.0" encoding="UTF-8"?>
<svg viewBox="0 0 70.972008 45.714233" xmlns="http://www.w3.org/2000/svg" xmlns:xlink="http://www.w3.org/1999/xlink">
 <defs>
  <filter id="h">
   <feGaussianBlur stdDeviation=".88068"/>
  </filter>
  <filter id="g">
   <feGaussianBlur stdDeviation=".89231"/>
  </filter>
  <linearGradient id="a">
   <stop stop-color="#a10000" offset="0"/>
   <stop stop-color="#a10000" stop-opacity="0" offset="1"/>
  </linearGradient>
  <linearGradient id="f" x2="0" y1="195.06" y2="234.08" gradientUnits="userSpaceOnUse" xlink:href="#a"/>
  <linearGradient id="e" x1="238.6" x2="210.03" y1="283.3" y2="225.33" gradientUnits="userSpaceOnUse" xlink:href="#a"/>
  <linearGradient id="d" x1="238.6" x2="210.03" y1="283.3" y2="225.33" gradientTransform="matrix(-1 0 0 1 781.32 4.2006)" gradientUnits="userSpaceOnUse" xlink:href="#a"/>
  <linearGradient id="c" x1="251.88" x2="521.58" gradientUnits="userSpaceOnUse" xlink:href="#a"/>
  <linearGradient id="b" x1="391.36" x2="391.17" y1="449.49" y2="495.13" gradientUnits="userSpaceOnUse" xlink:href="#a"/>
 </defs>
 <g transform="translate(-513.88 -322.32)">
  <path d="m525.92 332.55c-2.0723-0.63203-3.6036 1.2242-4.1962 2.967-0.67836 1.8625-1.5686 4.3584-1.5497 6.3264 0.0821 2.0387 1.5042 3.553 1.453 5.6016 0.15637 1.8634-0.40035 3.6875-1.338 5.2837-1.0932 1.9804-2.2616 3.9347-3.7269 5.661-0.89262 1.329-1.7957 2.7461-2.1371 4.3241 0.0398 1.9072 2.1194 2.6808 3.6286 3.2621 2.1107 0.73877 4.4019 0.69305 6.5975 0.56382 1.7596-0.13 2.5319-1.9009 2.723-3.4266 0.28519-1.8562-0.43084-3.6412-0.74719-5.4314-0.16681-2.0301 1.6972-4.1355 3.8133-3.6492 1.4877 0.35366 2.6927 1.5796 4.3061 1.4435" fill="none" stroke="#ac1717" stroke-dasharray="4.36620768, 2.18310384" stroke-dashoffset=".32747" stroke-linecap="round" stroke-linejoin="round" stroke-width="1.0916"/>
  <g transform="matrix(.13644 0 0 .13644 501.73 297.63)" fill-rule="evenodd">
   <path d="m190.51 326.44c-12.33-8.5016-11.107-20.391-15.446-30.891 1.3285-17.251-5.3525-17.755 19.01-83.168 144.2-44.689 272.37-36.655 389.7 5.9406 11.466 24.567 25.163 47.647 23.762 80.792-3.3882 9.989-5.4705 20.631-13.069 28.515-16.722 4.0002-48.397 0.19942-116.44-22.574l10.693-43.96c2.0079-6.9875 1.7875-14.718-9.505-26.139-59.71-2.0089-119.5-4.3301-177.03 2.3762-9.0019 2.8793-11.809 11.953-11.881 23.762l11.881 33.267c-40.712 14.613-87.66 36.241-111.68 32.079z" fill="#bb1313" stroke="#c70000" stroke-linecap="round" stroke-linejoin="round" stroke-width="3"/>
   <path d="m202.47 214.76c121.37-24.801 243.53-29.128 367.14 4.2006-23.394-0.73701-45.611-3.5924-79.812 15.122-56.89-7.81-117.36-12.936-200.79-0.84012-20-10.583-44.328-19.002-86.533-18.483z" fill="url(#f)"/>
   <path d="m175.59 297.09c47.481 2.0505 79.604-18.935 114.26-36.125l-9.2414 2.5204-105.02 33.605z" fill="url(#e)"/>
   <path d="m605.73 301.29c-47.481 2.0505-79.604-18.935-114.26-36.125l9.2414 2.5204 105.02 33.605z" fill="url(#d)"/>
  </g>
  <g transform="matrix(.13644 0 0 .13644 501.73 297.63)" fill-rule="evenodd">
   <path d="m304.16 272.96c-12.609 4.1631-30.587 12.554-46.337 26.139-10.387 60.474-12.012 132.63-13.069 205.54 108.68 11.958 183.07 9.9242 289.9 4.7525 0.25207-68.81-2.383-138.77-17.822-213.86-13.069-8.584-26.139-17.09-39.208-22.574 0.95712-15.594 0.57732-33.193-4.7525-58.218-5.5096-1.7996-15.507-1.3554-27.327 0-1.1881 10.613-2.3762 18.472-3.5644 38.02-40.975 1.2492-76.645 0.73-108.12-1.1881-0.39604-10.524-0.79207-23.147-1.1881-36.832-9.505-1.9586-14.257-3.5421-23.762-2.3762-1.916 18.207-5.676 25.35-4.7525 60.594z" fill="#b21111" stroke="#c30000" stroke-linecap="round" stroke-linejoin="round" stroke-width="5"/>
   <path d="m251.88 338.3c4.7901-12.202 7.8068-27.951 15.446-34.455 91.519-34.294 164.91-26.178 237.62-7.1287l16.634 24.95-4.7525-27.327-47.525-23.762c-59.965-19.19-115.87-20.79-166.34 1.1881-25.992 15.776-39.709 20.975-43.96 26.139-2.1372 13.704-4.8272 26.856-7.1287 40.396z" fill="url(#c)" filter="url(#h)"/>
   <path d="m257.01 449.99c-14.717 7.5248-4.4859 44.158 3.5644 58.218l250.69 3.5644c15.584-17.219 22.979-45.744 5.3465-58.218-85.201 8.8118-161.15 9.4842-259.6-3.5644z" fill="url(#b)" filter="url(#g)"/>
  </g>
  <g transform="matrix(1.3148 0 0 .88475 -168.67 38.141)">
   <path d="m543.32196,341.06186h3.87712a.13763,.20644 0 0,1 .13763.20644v3.60974a.13763,.20644 0 0,1 -.13763.20644h-3.87712a.13763,.20644 0 0,1 -.13763-.20644v-3.60974a.13763,.20644 0 0,1 .13763-.20644" fill="#ececec"/>
   <path d="m543.26 345.15h4.0305a0.034408 0.068817 0 0 1 0.03441 0.06882v0.12189a0.034408 0.068817 0 0 1 -0.03441 0.06882h-4.0305a0.034408 0.068817 0 0 1 -0.03441 -0.06882v-0.12189a0.034408 0.068817 0 0 1 0.03441 -0.06882" fill="#b3b3b3"/>
   <g transform="translate(5.0607)">
    <path d="m543.32196,341.06186h3.87712a.13763,.20644 0 0,1 .13763.20644v3.60974a.13763,.20644 0 0,1 -.13763.20644h-3.87712a.13763,.20644 0 0,1 -.13763-.20644v-3.60974a.13763,.20644 0 0,1 .13763-.20644" fill="#ececec"/>
    <path d="m543.26 345.15h4.0305a0.034408 0.068817 0 0 1 0.03441 0.06882v0.12189a0.034408 0.068817 0 0 1 -0.03441 0.06882h-4.0305a0.034408 0.068817 0 0 1 -0.03441 -0.06882v-0.12189a0.034408 0.068817 0 0 1 0.03441 -0.06882" fill="#b3b3b3"/>
   </g>
   <g transform="translate(9.8619)">
    <path d="m543.32196,341.06186h3.87712a.13763,.20644 0 0,1 .13763.20644v3.60974a.13763,.20644 0 0,1 -.13763.20644h-3.87712a.13763,.20644 0 0,1 -.13763-.20644v-3.60974a.13763,.20644 0 0,1 .13763-.20644" fill="#ececec"/>
    <path d="m543.26 345.15h4.0305a0.034408 0.068817 0 0 1 0.03441 0.06882v0.12189a0.034408 0.068817 0 0 1 -0.03441 0.06882h-4.0305a0.034408 0.068817 0 0 1 -0.03441 -0.06882v-0.12189a0.034408 0.068817 0 0 1 0.03441 -0.06882" fill="#b3b3b3"/>
   </g>
  </g>
  <g transform="matrix(1.3148 0 0 .88475 -168.67 42.618)">
   <path d="m543.32196,341.06186h3.87712a.13763,.20644 0 0,1 .13763.20644v3.60974a.13763,.20644 0 0,1 -.13763.20644h-3.87712a.13763,.20644 0 0,1 -.13763-.20644v-3.60974a.13763,.20644 0 0,1 .13763-.20644" fill="#ececec"/>
   <path d="m543.26 345.15h4.0305a0.034408 0.068817 0 0 1 0.03441 0.06882v0.12189a0.034408 0.068817 0 0 1 -0.03441 0.06882h-4.0305a0.034408 0.068817 0 0 1 -0.03441 -0.06882v-0.12189a0.034408 0.068817 0 0 1 0.03441 -0.06882" fill="#b3b3b3"/>
   <g transform="translate(5.0607)">
    <path d="m543.32196,341.06186h3.87712a.13763,.20644 0 0,1 .13763.20644v3.60974a.13763,.20644 0 0,1 -.13763.20644h-3.87712a.13763,.20644 0 0,1 -.13763-.20644v-3.60974a.13763,.20644 0 0,1 .13763-.20644" fill="#ececec"/>
    <path d="m543.26 345.15h4.0305a0.034408 0.068817 0 0 1 0.03441 0.06882v0.12189a0.034408 0.068817 0 0 1 -0.03441 0.06882h-4.0305a0.034408 0.068817 0 0 1 -0.03441 -0.06882v-0.12189a0.034408 0.068817 0 0 1 0.03441 -0.06882" fill="#b3b3b3"/>
   </g>
   <g transform="translate(9.8619)">
    <path d="m543.32196,341.06186h3.87712a.13763,.20644 0 0,1 .13763.20644v3.60974a.13763,.20644 0 0,1 -.13763.20644h-3.87712a.13763,.20644 0 0,1 -.13763-.20644v-3.60974a.13763,.20644 0 0,1 .13763-.20644" fill="#ececec"/>
    <path d="m543.26 345.15h4.0305a0.034408 0.068817 0 0 1 0.03441 0.06882v0.12189a0.034408 0.068817 0 0 1 -0.03441 0.06882h-4.0305a0.034408 0.068817 0 0 1 -0.03441 -0.06882v-0.12189a0.034408 0.068817 0 0 1 0.03441 -0.06882" fill="#b3b3b3"/>
   </g>
  </g>
  <g transform="matrix(1.3148 0 0 .88475 -168.67 46.866)">
   <path d="m543.32196,341.06186h3.87712a.13763,.20644 0 0,1 .13763.20644v3.60974a.13763,.20644 0 0,1 -.13763.20644h-3.87712a.13763,.20644 0 0,1 -.13763-.20644v-3.60974a.13763,.20644 0 0,1 .13763-.20644" fill="#ececec"/>
   <path d="m543.26 345.15h4.0305a0.034408 0.068817 0 0 1 0.03441 0.06882v0.12189a0.034408 0.068817 0 0 1 -0.03441 0.06882h-4.0305a0.034408 0.068817 0 0 1 -0.03441 -0.06882v-0.12189a0.034408 0.068817 0 0 1 0.03441 -0.06882" fill="#b3b3b3"/>
   <g transform="translate(5.0607)">
    <path d="m543.32196,341.06186h3.87712a.13763,.20644 0 0,1 .13763.20644v3.60974a.13763,.20644 0 0,1 -.13763.20644h-3.87712a.13763,.20644 0 0,1 -.13763-.20644v-3.60974a.13763,.20644 0 0,1 .13763-.20644" fill="#ececec"/>
    <path d="m543.26 345.15h4.0305a0.034408 0.068817 0 0 1 0.03441 0.06882v0.12189a0.034408 0.068817 0 0 1 -0.03441 0.06882h-4.0305a0.034408 0.068817 0 0 1 -0.03441 -0.06882v-0.12189a0.034408 0.068817 0 0 1 0.03441 -0.06882" fill="#b3b3b3"/>
   </g>
   <g transform="translate(9.8619)">
    <path d="m543.32196,341.06186h3.87712a.13763,.20644 0 0,1 .13763.20644v3.60974a.13763,.20644 0 0,1 -.13763.20644h-3.87712a.13763,.20644 0 0,1 -.13763-.20644v-3.60974a.13763,.20644 0 0,1 .13763-.20644" fill="#ececec"/>
    <path d="m543.26 345.15h4.0305a0.034408 0.068817 0 0 1 0.03441 0.06882v0.12189a0.034408 0.068817 0 0 1 -0.03441 0.06882h-4.0305a0.034408 0.068817 0 0 1 -0.03441 -0.06882v-0.12189a0.034408 0.068817 0 0 1 0.03441 -0.06882" fill="#b3b3b3"/>
   </g>
  </g>
  <g transform="matrix(1.3148 0 0 .88475 -168.67 51.229)">
   <path d="m543.32196,341.06186h3.87712a.13763,.20644 0 0,1 .13763.20644v3.60974a.13763,.20644 0 0,1 -.13763.20644h-3.87712a.13763,.20644 0 0,1 -.13763-.20644v-3.60974a.13763,.20644 0 0,1 .13763-.20644" fill="#ececec"/>
   <path d="m543.26 345.15h4.0305a0.034408 0.068817 0 0 1 0.03441 0.06882v0.12189a0.034408 0.068817 0 0 1 -0.03441 0.06882h-4.0305a0.034408 0.068817 0 0 1 -0.03441 -0.06882v-0.12189a0.034408 0.068817 0 0 1 0.03441 -0.06882" fill="#b3b3b3"/>
   <g transform="translate(5.0607)">
    <path d="m543.32196,341.06186h3.87712a.13763,.20644 0 0,1 .13763.20644v3.60974a.13763,.20644 0 0,1 -.13763.20644h-3.87712a.13763,.20644 0 0,1 -.13763-.20644v-3.60974a.13763,.20644 0 0,1 .13763-.20644" fill="#ececec"/>
    <path d="m543.26 345.15h4.0305a0.034408 0.068817 0 0 1 0.03441 0.06882v0.12189a0.034408 0.068817 0 0 1 -0.03441 0.06882h-4.0305a0.034408 0.068817 0 0 1 -0.03441 -0.06882v-0.12189a0.034408 0.068817 0 0 1 0.03441 -0.06882" fill="#b3b3b3"/>
   </g>
   <g transform="translate(9.8619)">
    <path d="m543.32196,341.06186h3.87712a.13763,.20644 0 0,1 .13763.20644v3.60974a.13763,.20644 0 0,1 -.13763.20644h-3.87712a.13763,.20644 0 0,1 -.13763-.20644v-3.60974a.13763,.20644 0 0,1 .13763-.20644" fill="#ececec"/>
    <path d="m543.26 345.15h4.0305a0.034408 0.068817 0 0 1 0.03441 0.06882v0.12189a0.034408 0.068817 0 0 1 -0.03441 0.06882h-4.0305a0.034408 0.068817 0 0 1 -0.03441 -0.06882v-0.12189a0.034408 0.068817 0 0 1 0.03441 -0.06882" fill="#b3b3b3"/>
   </g>
  </g>
 </g>
</svg>
