<?xml version="1.0" encoding="UTF-8"?>
<svg width="181.44mm" height="171.42mm" version="1.1" viewBox="0 0 642.91462 607.40688" xmlns="http://www.w3.org/2000/svg">
 <g transform="translate(-441.59 -576.04)">
  <g transform="matrix(1.0601 0 0 1.0429 -65.122 -50.812)">
   <path d="m686.04 1139.8-63.987-74.517-87.476-127.97-55.078-59.127 0.80996-39.688 180.62 186.29 35.638 25.919-4.0498 83.426z" fill="#444141" fill-rule="evenodd" stroke="#000" stroke-linecap="round" stroke-linejoin="round" stroke-width="3"/>
   <path d="m691.71 1037.8-4.0498 104.49 33.208 32.399h27.539l17.009-33.208 190.34-2.4299 11.339 32.398 19.439 10.53 22.679-0.81 12.15-37.258 20.249-3.2399 13.769-60.747-6.4797-51.028-69.657 21.059z" fill="#2d2d2d" fill-rule="evenodd" stroke="#000" stroke-linecap="round" stroke-linejoin="round" stroke-width="3"/>
   <path d="m718.44 1053.2 5.6698 85.856 290.78-8.0996 6.4797-93.956-33.209-17.009-220.31-1.62z" fill="#423a3a" fill-rule="evenodd" stroke="#000" stroke-linecap="round" stroke-linejoin="round" stroke-width="3"/>
   <path d="m671.46 1000.5-6.4797 5.6698-183.86-177.38 0.80996-93.956 188.72-101.25 42.118 38.878-21.059 317.51z" fill="#f4ba38" fill-rule="evenodd" stroke="#000" stroke-linecap="round" stroke-linejoin="round" stroke-width="3"/>
   <path d="m910.4 1105.8 21.869 10.53 21.869 6.4797 1.6199-4.0498-23.489-6.4797-10.53-5.6697-10.53-5.6698z" fill="#7d7272" fill-rule="evenodd" stroke="#000" stroke-linecap="round" stroke-linejoin="round" stroke-width="3"/>
   <path d="m842.3 1098.1 5.2586 8.8526-28.691 10.985-23.489 9.7196-1.6199-7.2897 12.959-5.6697 16.199-5.6698 8.1566-4.2207z" fill="#7d7272" fill-rule="evenodd" stroke="#000" stroke-linecap="round" stroke-linejoin="round" stroke-width="3"/>
   <path d="m789.71 1053.2 0.80997 44.548v24.299l8.9096 27.539 14.579 14.579 14.579-1.62 11.339-11.34 9.7196-15.389-6.4797-4.0498-14.579 17.819-12.149 5.6698-9.7196-8.9096-3.2399-6.4797-5.6697-25.919v-25.919l-1.6199-13.769-0.80996-20.249v-17.009l-6.4797 0.81z" fill="#7d7272" fill-rule="evenodd" stroke="#000" stroke-linecap="round" stroke-linejoin="round" stroke-width="3"/>
   <path d="m838.31 1061.3-4.0498 46.978 38.878-5.6698 5.6697 11.34 10.53-6.4797 38.068-0.8099-5.6698-46.978-23.489-12.959-28.349-3.2399-32.399 21.059v0.8099z" fill="#cec3c3" fill-rule="evenodd" stroke="#000" stroke-linecap="round" stroke-linejoin="round" stroke-width="3"/>
   <path d="m916.07 1126.1 17.819 26.729 11.339 8.0996 8.9096-6.4797 4.0498-12.15v-46.978l-0.80997-17.009 4.8598-4.0498-3.2398-33.208-17.009 1.6199 3.2398 32.399 4.8598 5.6697 2.4299 51.838-4.0498 14.579-3.2399 0.81-9.7196-8.0996-11.339-15.389-8.0996-5.6697z" fill="#7d7272" fill-rule="evenodd" stroke="#000" stroke-linecap="round" stroke-linejoin="round" stroke-width="3"/>
   <path d="m665.79 1002.1-0.057 42.118 108.59 0.8099 18.629-19.439 179-2.4299 16.199 18.629 90.26 0.753 2.3037-43.453-203.78-10.7-111.52 3.1829z" fill="#6b6262" fill-rule="evenodd" stroke="#000" stroke-linecap="round" stroke-linejoin="round" stroke-width="3"/>
   <path d="m663.36 670.87 2.5438 329.26s139.16 8.0427 162.16-0.86694c23.009-8.9096 1.335-1.9741 1.335-1.9741l98.816-2.4299 1.6769 6.0809 151.41 2.8287s5.7741-319.41-4.0498-332.89c-4.5335-6.2222-1.2558-27.993-15.389-37.258-14.134-9.2651-59.127-8.0996-59.127-8.0996-100.98-32.129-152.54-29.429-234.89 0.80996 0 0-79.865-7.3658-96.386 7.2897-16.521 14.655-8.2272 20.749-8.0996 37.258z" fill="#f2b324" fill-rule="evenodd" stroke="#000" stroke-linecap="round" stroke-linejoin="round" stroke-width="3"/>
   <path d="m665.79 674.92 410.07-5.6698" fill="none" stroke="#000" stroke-linecap="round" stroke-linejoin="round" stroke-width="3"/>
   <path d="m809.97 684.44 2.4304 153.29-96.404-3.1936c-7.2302-2.6159-10.69-8.948-13.772-16.767v-115.77s-1.5312-9.9793 16.314-15.968c17.845-5.9888 91.432-1.5968 91.432-1.5968z" fill="#4e434b" fill-rule="evenodd" stroke="#000" stroke-linecap="round" stroke-linejoin="round" stroke-width="2.9788"/>
   <path d="m826.16 683.83 0.80996 151.46 100.44 3.2398-2.4299-157.94z" fill="#4e434b" fill-rule="evenodd" stroke="#000" stroke-linecap="round" stroke-linejoin="round" stroke-width="3"/>
   <path d="m826.97 835.29 0.80997 169.28" fill="none" stroke="#000" stroke-linecap="round" stroke-linejoin="round" stroke-width="3"/>
   <path d="m925.79 838.53 2.4299 166.04" fill="none" stroke="#000" stroke-linecap="round" stroke-linejoin="round" stroke-width="3"/>
   <path d="m873.14 917.1 1.5423 19.439 49.353-1.6199 0.77115-17.009z" fill="#b7533d" fill-rule="evenodd"/>
   <rect x="705.51" y="902.55" width="73.642" height="50.153" ry="12.751" fill="#c3b9bc" stroke="#000" stroke-linecap="round" stroke-linejoin="round" stroke-width="3"/>
   <rect x="711.96" y="910.62" width="21.869" height="34.018" ry="0" fill="#835d64" stroke="#000" stroke-linecap="round" stroke-linejoin="round" stroke-width="3"/>
   <rect x="735.71" y="911.26" width="35.969" height="32.729" ry="0" fill="#f8f4bf" stroke="#000" stroke-linecap="round" stroke-linejoin="round" stroke-width="3"/>
   <rect x="969.56" y="901.74" width="73.642" height="50.153" ry="12.751" fill="#c3b9bc" stroke="#000" stroke-linecap="round" stroke-linejoin="round" stroke-width="3"/>
   <rect transform="scale(-1,1)" x="-1035.7" y="909.81" width="21.869" height="34.018" ry="0" fill="#835d64" stroke="#000" stroke-linecap="round" stroke-linejoin="round" stroke-width="3"/>
   <rect transform="scale(-1,1)" x="-1012" y="910.45" width="35.969" height="32.729" ry="0" fill="#f8f4bf" stroke="#000" stroke-linecap="round" stroke-linejoin="round" stroke-width="3"/>
   <path d="m827.78 995.66v7.2896l104.49-0.8099 0.80996-9.7196z" fill="#cec3c3" fill-rule="evenodd" stroke="#000" stroke-linecap="round" stroke-linejoin="round" stroke-width="3"/>
   <path d="m844.21 1111.1-3.4678 31.177 77.756 0.81 1.6199-27.539z" fill="#6a5f5f" fill-rule="evenodd" stroke="#000" stroke-linecap="round" stroke-linejoin="round" stroke-width="3"/>
   <path d="m663.83 1036.7-184.33-197.4v-13.769l185.2 172.41z" fill="#7d7272" fill-rule="evenodd" stroke="#000" stroke-linecap="round" stroke-linejoin="round" stroke-width="3"/>
   <rect x="801.38" y="617.96" width="154.99" height="38.354" rx="10.201" ry="12.451" fill="#4e434b" stroke="#000" stroke-linecap="round" stroke-linejoin="round" stroke-width="3"/>
   <path d="m632.58 687.88-0.80996 115.01 1.6199 20.249 7.2897 6.4797 3.2399-96.386-1.6199-46.978z" fill="#4e434b" fill-rule="evenodd" stroke="#000" stroke-linecap="round" stroke-linejoin="round" stroke-width="3"/>
   <path d="m617.19 693.55-5.6697 119.87 8.0996 7.2897 1.6199-38.878 0.80996-57.507 2.4299-29.159z" fill="#4e434b" fill-rule="evenodd" stroke="#000" stroke-linecap="round" stroke-linejoin="round" stroke-width="3"/>
   <path d="m604.23 698.41v119.06l-12.149-6.4797 4.0498-114.2z" fill="#4e434b" fill-rule="evenodd" stroke="#000" stroke-linecap="round" stroke-linejoin="round" stroke-width="3"/>
   <path d="m588.03 699.22 0.80996 110.96-8.9096-5.6697v-103.68z" fill="#4e434b" fill-rule="evenodd" stroke="#000" stroke-linecap="round" stroke-linejoin="round" stroke-width="3"/>
   <path d="m575.88 705.7-4.8598 93.146-8.0996-4.0498 4.0498-87.476z" fill="#4e434b" fill-rule="evenodd" stroke="#000" stroke-linecap="round" stroke-linejoin="round" stroke-width="3"/>
   <path d="m560.49 710.56-2.4299 83.426h-6.4797l-0.80997-81.806z" fill="#4e434b" fill-rule="evenodd" stroke="#000" stroke-linecap="round" stroke-linejoin="round" stroke-width="3"/>
   <path d="m535.39 720.28h6.4797l-3.2398 64.797-7.2897-5.6697z" fill="#4e434b" fill-rule="evenodd" stroke="#000" stroke-linecap="round" stroke-linejoin="round" stroke-width="3"/>
   <path d="m520.81 728.38 7.2897 1.6199-4.0498 41.308-6.4797-1.6199z" fill="#4e434b" fill-rule="evenodd" stroke="#000" stroke-linecap="round" stroke-linejoin="round" stroke-width="3"/>
   <path d="m507.04 736.48h4.8598v25.919l-7.2897-2.4299z" fill="#4e434b" fill-rule="evenodd" stroke="#000" stroke-linecap="round" stroke-linejoin="round" stroke-width="3"/>
   <path d="m497.32 742.96 1.6199 12.959 3.2399-12.149z" fill="#4e434b" fill-rule="evenodd" stroke="#000" stroke-linecap="round" stroke-linejoin="round" stroke-width="3"/>
   <path d="m492.46 744.58-3.2399 8.9096z" fill="#4e434b" fill-rule="evenodd" stroke="#000" stroke-linecap="round" stroke-linejoin="round" stroke-width="3"/>
   <path d="m491.65 744.58 2.4299 9.7196-5.6697-1.6199z" fill="#4e434b" fill-rule="evenodd" stroke="#000" stroke-linecap="round" stroke-linejoin="round" stroke-width="3"/>
   <path d="m757.85 849.01 5.9495 1.6759 28.349-65.607 8.0996-24.299-27.386 54.533z" fill="#2d1a1a" fill-rule="evenodd" stroke="#000" stroke-linecap="round" stroke-linejoin="round" stroke-width="3"/>
   <path d="m945.91 682.93-2.4304 153.29 96.404-3.1936c7.2302-2.6159 10.69-8.948 13.772-16.767v-115.77s1.5312-9.9793-16.314-15.968c-17.845-5.9888-91.432-1.5968-91.432-1.5968z" fill="#4e434b" fill-rule="evenodd" stroke="#000" stroke-linecap="round" stroke-linejoin="round" stroke-width="2.9788"/>
   <path d="m990.59 851.49 5.6698 0.80997-3.2399-31.589-2.4299-68.037-3.2398 6.4797 3.2399 68.847 1.6199 20.249z" fill="#2d1a1a" fill-rule="evenodd" stroke="#000" stroke-linecap="round" stroke-linejoin="round" stroke-width="3"/>
   <path d="m582.06 681.57-8.6882 234.09" fill="none" stroke="#000" stroke-linecap="round" stroke-linejoin="round" stroke-width="2.9814"/>
   <path d="m520.48 714.8-9.2962 139.34" fill="none" stroke="#000" stroke-linecap="round" stroke-linejoin="round" stroke-width="2.3793"/>
   <g transform="matrix(.95686 .07007 -.086167 1.2281 75.074 -207.5)" fill="#b7533d" stroke-width="1px">
    <path d="m882.33 860.23q-0.20092 2.0846-0.22603 4.9477 0.80368-1.0548 1.6325-1.4818 0.8288-0.42696 2.0846-0.42696 2.5115 0 3.9933 1.758 1.4818 1.7581 1.4818 4.6714 0 3.1896-1.5822 5.0984-1.5571 1.8836-4.2193 1.8836-2.5868 0-3.7421-1.9339 0.10046 0.72833 0.10046 0.80368 0 0.90414-0.87903 0.90414t-0.87903-1.2558q0-0.35161 0.0251-0.52742 0-0.57764 0.0251-1.2306l0.0754-1.9339 0.0502-2.5366-0.0502-6.7057q-0.0251-0.92926-0.20092-1.2558-0.15069-0.3265-0.55253-0.3265-0.0753 0-0.65299 0.10046-0.27627 0.0502-0.47719 0.0502-0.85391 0-0.85391-0.80368 0-0.8288 1.0046-0.8288 0.30138 0 0.5023 0.0251l0.60276 0.0753q0.40184 0.0502 0.65299 0.0502 0.27627 0 0.77857-0.0753 0.5023-0.10046 0.75345-0.10046 0.55253 0 0.55253 0.70322v0.35161zm-0.0251 7.2834q-0.17581 0.80369-0.17581 2.2604 0 2.4864 0.40184 3.4156 0.77857 1.8334 2.9636 1.8334 1.7329 0 2.7375-1.3562 1.0297-1.3813 1.0297-3.6919 0-2.3608-0.97948-3.6919-0.95437-1.3562-2.6371-1.3562-1.1804 0-2.1348 0.75346-0.95437 0.72833-1.2055 1.8334z"/>
    <path d="m904.64 868.87q0 0.95437-0.12557 1.1804-0.12558 0.20092-0.72834 0.20092h-7.9866q-0.3265 0-0.42696 0.10046-0.10046 0.0753-0.10046 0.27627 0 1.8836 1.1302 3.1394t2.8129 1.2558q1.1051 0 2.0092-0.60276 0.92925-0.60276 1.2055-1.532l0.22603-0.72833q0.17581-0.60276 0.8288-0.60276 0.92926 0 0.92926 0.95437 0 1.6325-1.6576 2.9133-1.6576 1.2558-3.7672 1.2558-2.6371 0-4.1942-1.7581-1.5571-1.7832-1.5571-4.7719 0-3.064 1.6576-4.9728t4.3198-1.9088q2.3608 0 3.8928 1.5822t1.532 4.0184zm-9.1168-0.65299q0 0.35161 0.55253 0.35161h6.0025q0.52741 0 0.52741-0.35161 0-1.3311-1.0046-2.3106t-2.3608-0.97949q-1.4064 0-2.5617 1.0297-1.1553 1.0046-1.1553 2.2604z"/>
   </g>
   <g transform="matrix(.33878 0 0 .37809 578.55 583.23)" fill="#f2b324" stroke-width="1px">
    <path d="m910.29 902.79q0 4.08-4.64 5.76 1.68 0.52 2.76 1.16 3.24 1.88 3.24 5.64 0 3.68-2.84 5.88-2.84 2.16-7.6 2.16-1.72 0-4.36-0.2t-3.88-0.2q-1.08 0-2.04 0.12l-1.88 0.24q-0.08 0-0.28 0.04-0.2 0-0.28 0-1.72-0.04-1.72-1.44 0-1.28 1.24-1.28 0.32 0 1.08 0.12 0.52 0.08 0.84 0.08 2.04 0 2.04-2.96v-16.08q0-3-2.04-3-0.36 0-0.84 0.08-0.72 0.12-1.08 0.12-1.24 0-1.24-1.28 0-1.4 1.84-1.4h0.52l1.96 0.28q0.84 0.12 2.28 0.12 1.52 0 4.32-0.24 1.88-0.16 4.04-0.16 4.04 0 6.28 1.72 2.28 1.68 2.28 4.72zm-15.32 1.72q0 2.12 0.36 2.64 0.4 0.48 2.12 0.48h2.24q7.08 0 7.08-4.6 0-4.2-5.84-4.2-4.08 0-5.04 0.52-0.92 0.52-0.92 2.68v2.48zm0 8.12v4.44q0 2.6 0.88 3.2t4.8 0.6q7.48 0 7.48-5.6 0-5.16-7.2-5.16h-3.32q-2.16 0-2.48 0.96-0.16 0.48-0.16 1.56z"/>
    <path d="m933.39 911.43q0 1.52-0.2 1.88-0.2 0.32-1.16 0.32h-12.72q-0.52 0-0.68 0.16-0.16 0.12-0.16 0.44 0 3 1.8 5t4.48 2q1.76 0 3.2-0.96 1.48-0.96 1.92-2.44l0.36-1.16q0.28-0.96 1.32-0.96 1.48 0 1.48 1.52 0 2.6-2.64 4.64-2.64 2-6 2-4.2 0-6.68-2.8-2.48-2.84-2.48-7.6 0-4.88 2.64-7.92t6.88-3.04q3.76 0 6.2 2.52t2.44 6.4zm-14.52-1.04q0 0.56 0.88 0.56h9.56q0.84 0 0.84-0.56 0-2.12-1.6-3.68t-3.76-1.56q-2.24 0-4.08 1.64-1.84 1.6-1.84 3.6z"/>
    <path d="m942.44 904.35v1.08q2.08-2.92 5.56-2.92 2.8 0 4.52 1.6 1.76 1.56 1.76 4.04 0 1.76-0.88 2.88-0.88 1.08-2.32 1.08-0.92 0-1.56-0.56t-0.64-1.36q0-0.64 0.48-1.12 0.48-0.52 1.12-0.52 0.12 0 0.52 0.12 0.24-0.48 0.24-0.88 0-1.16-1.04-1.96-1-0.8-2.52-0.8-3.12 0-4.16 2.8-0.64 1.72-0.64 5.2v2.64q0 2.68 0.04 3 0.2 2.28 1.24 2.28 0.52 0 1.08-0.16 0.44-0.12 0.76-0.12 1.28 0 1.28 1.28 0 1.4-1.64 1.4h-0.16q-0.6 0-1.84-0.16-1.2-0.12-1.8-0.12-1.6 0-2.52 0.08l-2.24 0.2q-1.64 0-1.64-1.4 0-1.24 1.52-1.24 0.4 0 0.6 0.04l0.6 0.12q0.4 0.08 0.56 0.08 1 0 1.08-1.84l0.08-2.04-0.12-9.08q-0.12-2.36-1.2-2.36-0.32 0-0.88 0.12t-0.88 0.12q-1.32 0-1.32-1.28 0-1.4 1.72-1.4 0.4 0 1.2 0.12 0.8 0.08 1.2 0.08 0.32 0 1.04-0.08 0.32-0.08 0.76-0.08 1.04 0 1.04 1.12z"/>
    <path d="m962.33 906.47 0.04 12.44q0.04 2.04 1.08 2.04 0.24 0 1-0.2 0.48-0.08 0.64-0.08 1.32 0 1.32 1.36 0 1.32-1.64 1.32-0.64 0-2.04-0.16t-2.16-0.16q-0.64 0-1.92 0.16t-1.88 0.16h-0.2q-1.68 0-1.68-1.44 0-1.24 1.36-1.24 0.08 0 0.28 0 0.24 0.04 0.36 0.04 1 0.16 1.16 0.16 0.72 0 0.88-0.6 0.2-0.64 0.24-3.24l0.04-2.8 0.12-6.2-0.04-7.12q-0.04-1.2-0.12-1.6-0.28-0.92-1.12-0.92-0.12 0-1.04 0.16-0.44 0.08-0.72 0.08-1.36 0-1.36-1.28 0-1.32 1.6-1.32 0.44 0 0.76 0.04l0.96 0.12q0.64 0.08 1.08 0.08 0.4 0 1.2-0.12 0.8-0.16 1.2-0.16 0.92 0 0.92 1.16 0 0.4-0.04 0.6-0.28 3.08-0.28 8.72z"/>
    <path d="m974.91 911.59v5.2q0 2 0.04 2.36 0.2 1.8 1.08 1.8 0.2 0 1-0.2 0.2-0.08 0.6-0.08 1.52 0 1.52 1.32 0 0.56-0.52 0.96-0.48 0.4-1.24 0.4-0.64 0-1.96-0.16-1.28-0.2-1.92-0.2-1.04 0-2.32 0.16-1.56 0.2-2.08 0.2-1.6 0-1.6-1.36 0-1.32 1.36-1.32 0.32 0 0.92 0.12 0.64 0.12 0.96 0.12 0.96 0 1.16-2.56 0-0.16 0-3.48v-3.28q0-3.32 0-3.48-0.2-2.52-1.2-2.52-0.32 0-0.92 0.16-0.56 0.12-0.84 0.12-1.44 0-1.44-1.28 0-1.36 1.76-1.36 0.76 0 1.08 0.04 1.28 0.16 1.64 0.16 0.32 0 0.96-0.08 0.68-0.12 1-0.12 1.16 0 1.16 1.56 0 0.16-0.04 0.48t-0.04 0.48q-0.04 0.32-0.08 2.48-0.04 1.64-0.04 3.36zm-2.08-10.48q-0.92 0-1.6-0.64-0.64-0.68-0.64-1.6t0.64-1.56q0.68-0.64 1.6-0.64t1.56 0.64q0.68 0.64 0.68 1.56t-0.68 1.6q-0.64 0.64-1.56 0.64z"/>
    <path d="m986.98 904.43v1.12q2.4-3.04 6.4-3.04 2.16 0 4.08 1.12 1.92 1.08 2.6 2.72 0.56 1.36 0.56 3.56v7.6q0 1.72 0.04 2.04 0.2 1.36 1.08 1.36 0.36 0 0.92-0.08 0.6-0.12 0.84-0.12 0.52 0 0.88 0.36 0.4 0.36 0.4 0.88 0 0.6-0.48 1t-1.16 0.4q-0.56 0-1.84-0.16t-2.4-0.16q-1.04 0-1.72 0.08-2 0.24-2.12 0.24-1.6 0-1.6-1.4 0-1.24 1.36-1.24 0.32 0 0.72 0.08 0.76 0.16 0.96 0.16 0.96 0 1.04-2.2l0.08-2.04 0.04-2.44v-3.04q0-2.12-0.2-2.92-0.36-1.52-1.56-2.36-1.32-0.92-3-0.92-3.2 0-4.6 2.28-0.96 1.56-0.96 5.32v5.32q0 1.76 0.24 2.4t0.88 0.64q0.32 0 0.88-0.16t0.92-0.16q1.24 0 1.24 1.36 0 1.32-1.6 1.32-0.32 0-2.08-0.24-0.88-0.12-1.96-0.12-0.84 0-2.24 0.16-1.76 0.2-2 0.2-1.68 0-1.68-1.36 0-1.28 1.28-1.28 0.2 0 0.72 0.12 0.56 0.12 1.08 0.12 1.2 0 1.24-2.32l0.08-4.44v-4.84l-0.08-1.4q-0.08-1.36-0.36-1.84-0.24-0.52-0.88-0.52-0.28 0-0.84 0.12-0.52 0.08-0.8 0.08-1.44 0-1.44-1.28 0-1.32 1.8-1.32 0.24 0 0.4 0.04l1.48 0.16q0.64 0 1.12-0.08 1.04-0.08 1.08-0.08 1.16 0 1.16 1.2z"/>
   </g>
   <g transform="scale(.91413 1.0939)" stroke-width="1px">
    <path d="m952.54 889.69q0 3.125-2.065 5.1073-2.0512 1.9686-5.0385 1.9686-1.5143 0-2.7533-0.46806t-2.1889-1.3904q-1.1839-1.1426-1.8309-3.0286-0.63325-1.886-0.63325-4.5429 0-2.7257 0.57819-4.832 0.59195-2.1062 1.8722-3.7444 1.2114-1.5556 3.125-2.4229 1.9135-0.88104 4.4603-0.88104 0.81222 0 1.3629 0.0688 0.55066 0.0688 1.1151 0.24779v2.6294h-0.13767q-0.38546-0.2065-1.1701-0.38546-0.77092-0.19273-1.5831-0.19273-2.9598 0-4.7219 1.8585-1.7621 1.8447-2.0512 4.9972 1.1564-0.70209 2.2714-1.06 1.1288-0.37169 2.6018-0.37169 1.3078 0 2.299 0.24779 1.005 0.23403 2.0512 0.96365 1.2114 0.83975 1.8172 2.12 0.61949 1.2803 0.61949 3.1112zm-2.7946 0.11013q0-1.2803-0.38546-2.12-0.37169-0.83975-1.239-1.4592-0.63325-0.44052-1.4042-0.57819-0.77091-0.13766-1.6107-0.13766-1.1701 0-2.1751 0.27533t-2.065 0.85351q-0.0275 0.30286-0.0413 0.59196-0.0138 0.27533-0.0138 0.70208 0 2.1751 0.44052 3.4416 0.45429 1.2527 1.239 1.9824 0.63325 0.60572 1.3629 0.89481 0.74338 0.27533 1.6107 0.27533 1.9961 0 3.1387-1.2114 1.1426-1.2252 1.1426-3.5104z"/>
    <path d="m970.66 890.57h-3.0424v5.7681h-2.6431v-5.7681h-9.8154v-3.1663l9.9256-11.564h2.533v12.527h3.0424v2.2026zm-5.6855-2.2026v-9.251l-7.9432 9.251h7.9432z"/>
    <path d="m986.34 886.47q0.66078 0.59195 1.0875 1.4868 0.42676 0.89481 0.42676 2.3128 0 1.4042-0.50936 2.5743-0.50935 1.1701-1.4317 2.0374-1.0325 0.96365-2.4366 1.4317-1.3904 0.45429-3.0561 0.45429-1.707 0-3.359-0.41299-1.652-0.39923-2.712-0.88105v-2.8772h0.2065q1.1701 0.77091 2.7533 1.2803 1.5831 0.50935 3.0561 0.50935 0.86728 0 1.8447-0.28909t1.5831-0.85351q0.63325-0.60573 0.93611-1.3353 0.31663-0.72962 0.31663-1.8447 0-1.1013-0.35793-1.8172-0.34416-0.72962-0.96365-1.1426-0.61948-0.42676-1.5005-0.57819-0.88105-0.16519-1.8998-0.16519h-1.239v-2.2852h0.96364q2.0925 0 3.3315-0.86728 1.2528-0.88105 1.2528-2.5606 0-0.74338-0.31663-1.294-0.31663-0.56442-0.88105-0.92235-0.59195-0.35792-1.2665-0.49559-0.67455-0.13766-1.5281-0.13766-1.3078 0-2.7808 0.46806-1.473 0.46805-2.7808 1.3216h-0.13766v-2.8772q0.97741-0.48183 2.6018-0.88105 1.6382-0.41299 3.1663-0.41299 1.5005 0 2.6431 0.27532 1.1426 0.27533 2.065 0.88105 0.99118 0.66079 1.5005 1.5969 0.50936 0.93612 0.50936 2.1889 0 1.707-1.2114 2.9873-1.1977 1.2665-2.8359 1.5969v0.19273q0.66079 0.11013 1.5143 0.46806 0.85351 0.34416 1.4455 0.86728z"/>
   </g>
   <g transform="scale(.77685 1.2872)" fill="#d7e1ee" stroke-width="1px">
    <path d="m1061.6 488.28-3.303 12.708h-1.9032l-2.6714-10.549-2.6117 10.549h-1.8606l-3.3627-12.708h1.7326l2.6714 10.566 2.6287-10.566h1.7155l2.6543 10.668 2.6543-10.668h1.6558z"/>
    <path d="m1071.3 500.99h-1.5961v-1.0156q-0.2133 0.14509-0.5803 0.40967-0.3585 0.25604-0.6999 0.40967-0.4011 0.1963-0.9217 0.32432-0.5206 0.13656-1.2205 0.13656-1.2887 0-2.1849-0.85348t-0.8962-2.1764q0-1.0839 0.4609-1.7496 0.4694-0.67425 1.3315-1.0583 0.8705-0.38407 2.091-0.52062 1.2204-0.13656 2.6201-0.20484v-0.2475q0-0.54623-0.1963-0.90469-0.1877-0.35846-0.5462-0.5633-0.3414-0.1963-0.8193-0.26458-0.478-0.0683-0.9986-0.0683-0.6316 0-1.4082 0.17069-0.7767 0.16216-1.6046 0.47795h-0.085v-1.6301q0.4694-0.12802 1.357-0.28165t1.7497-0.15363q1.0071 0 1.7496 0.1707 0.751 0.16216 1.2973 0.56329 0.5377 0.3926 0.8193 1.0156 0.2817 0.62304 0.2817 1.5448v6.4694zm-1.5961-2.3471v-2.6543q-0.7339 0.0427-1.7325 0.12802-0.99 0.0854-1.5704 0.24751-0.6913 0.1963-1.1181 0.6145-0.4267 0.40967-0.4267 1.1351 0 0.81934 0.495 1.2375 0.495 0.40967 1.5107 0.40967 0.8449 0 1.5448-0.32432 0.6998-0.33286 1.2972-0.79373z"/>
    <path d="m1080.3 493.21h-0.085q-0.3585-0.0854-0.6999-0.11948-0.3328-0.0427-0.7937-0.0427-0.7425 0-1.4339 0.33286-0.6913 0.32432-1.3314 0.84494v6.7681h-1.6045v-9.5334h1.6045v1.4082q0.9559-0.76813 1.6814-1.0839 0.734-0.32432 1.4935-0.32432 0.4183 0 0.606 0.0256 0.1878 0.0171 0.5633 0.0768v1.6472z"/>
    <path d="m1088.7 498.24q0 1.3058-1.0839 2.1422-1.0754 0.83641-2.9445 0.83641-1.0583 0-1.946-0.24751-0.879-0.25604-1.4765-0.55476v-1.8008h0.085q0.7596 0.57183 1.6899 0.91322 0.9303 0.33286 1.7837 0.33286 1.0583 0 1.6558-0.34139 0.5974-0.34139 0.5974-1.0754 0-0.5633-0.3243-0.85348t-1.2461-0.49502q-0.3414-0.0768-0.8961-0.17923-0.5463-0.10242-0.9986-0.2219-1.2546-0.33286-1.7838-0.97297-0.5206-0.64864-0.5206-1.5875 0-0.5889 0.239-1.1095 0.2475-0.52062 0.7425-0.93029 0.478-0.40113 1.2119-0.63157 0.7426-0.23898 1.6558-0.23898 0.8535 0 1.724 0.21337 0.8791 0.20484 1.4595 0.50355v1.7155h-0.085q-0.6145-0.45235-1.4936-0.7596-0.8791-0.31579-1.724-0.31579-0.8791 0-1.485 0.34139-0.606 0.33286-0.606 0.99857 0 0.5889 0.367 0.88762 0.3584 0.29872 1.1607 0.48648 0.4438 0.10242 0.99 0.20484 0.5548 0.10241 0.9218 0.18776 1.1181 0.25605 1.724 0.87908 0.606 0.63158 0.606 1.6728z"/>
    <path d="m1098 500.4q-0.8023 0.38406-1.5278 0.59743-0.7169 0.21337-1.5277 0.21337-1.0327 0-1.8947-0.29872-0.862-0.30725-1.4765-0.92175-0.6231-0.61451-0.9644-1.5533-0.3414-0.93883-0.3414-2.1934 0-2.3385 1.2802-3.67 1.2887-1.3314 3.3968-1.3314 0.8194 0 1.6046 0.23044 0.7937 0.23044 1.4509 0.56329v1.7838h-0.085q-0.734-0.57183-1.5192-0.87908-0.7766-0.30725-1.5192-0.30725-1.3655 0-2.1593 0.92175-0.7852 0.91322-0.7852 2.6885 0 1.724 0.7682 2.6543 0.7766 0.92176 2.1763 0.92176 0.4865 0 0.9901-0.12802 0.5035-0.12802 0.9047-0.33286 0.3499-0.17923 0.6571-0.37553 0.3073-0.20483 0.4865-0.34992h0.085v1.7667z"/>
    <path d="m1108 500.99h-1.6046v-5.4281q0-0.65718-0.077-1.229-0.077-0.58036-0.2816-0.90468-0.2134-0.35846-0.6145-0.52916-0.4012-0.17923-1.0413-0.17923-0.6572 0-1.3741 0.32432t-1.3741 0.82787v7.118h-1.6045v-13.28h1.6045v4.8051q0.7511-0.62304 1.5534-0.97297 0.8022-0.34993 1.6472-0.34993 1.5448 0 2.3556 0.9303 0.8108 0.93029 0.8108 2.6799v6.1877z"/>
    <path d="m1118.5 500.99h-1.5961v-1.0156q-0.2133 0.14509-0.5803 0.40967-0.3585 0.25604-0.6999 0.40967-0.4011 0.1963-0.9217 0.32432-0.5206 0.13656-1.2205 0.13656-1.2887 0-2.1849-0.85348t-0.8962-2.1764q0-1.0839 0.4609-1.7496 0.4694-0.67425 1.3315-1.0583 0.8705-0.38407 2.091-0.52062 1.2204-0.13656 2.6201-0.20484v-0.2475q0-0.54623-0.1963-0.90469-0.1877-0.35846-0.5462-0.5633-0.3414-0.1963-0.8193-0.26458-0.478-0.0683-0.9986-0.0683-0.6316 0-1.4082 0.17069-0.7767 0.16216-1.6046 0.47795h-0.085v-1.6301q0.4694-0.12802 1.357-0.28165t1.7496-0.15363q1.0072 0 1.7497 0.1707 0.751 0.16216 1.2973 0.56329 0.5377 0.3926 0.8193 1.0156 0.2817 0.62304 0.2817 1.5448v6.4694zm-1.5961-2.3471v-2.6543q-0.7339 0.0427-1.7325 0.12802-0.99 0.0854-1.5704 0.24751-0.6913 0.1963-1.1181 0.6145-0.4267 0.40967-0.4267 1.1351 0 0.81934 0.495 1.2375 0.495 0.40967 1.5107 0.40967 0.8449 0 1.5448-0.32432 0.6998-0.33286 1.2972-0.79373z"/>
    <path d="m1129.5 500.99h-1.6046v-1.0583q-0.8108 0.64011-1.5533 0.9815t-1.6387 0.34139q-1.5021 0-2.3385-0.91322-0.8364-0.92176-0.8364-2.697v-6.1877h1.6045v5.4281q0 0.72546 0.068 1.2461 0.068 0.51209 0.2902 0.87908 0.2304 0.37553 0.5974 0.54623 0.367 0.17069 1.0669 0.17069 0.623 0 1.357-0.32432 0.7425-0.32432 1.3826-0.82787v-7.118h1.6046v9.5334z"/>
    <path d="m1140.6 496.39h-7.0242q0 0.87909 0.2646 1.5363 0.2646 0.64865 0.7255 1.0668 0.4438 0.40967 1.0498 0.61451 0.6145 0.20483 1.3484 0.20483 0.973 0 1.9545-0.38406 0.99-0.3926 1.4082-0.76813h0.085v1.7496q-0.8108 0.34139-1.6558 0.57183-0.8449 0.23043-1.7752 0.23043-2.3727 0-3.7041-1.2802-1.3314-1.2888-1.3314-3.6529 0-2.3385 1.2717-3.7126 1.2802-1.3741 3.3627-1.3741 1.9288 0 2.9701 1.1266 1.0498 1.1266 1.0498 3.2005v0.87054zm-1.5619-1.229q-0.01-1.2632-0.6401-1.9545-0.6231-0.69131-1.9033-0.69131-1.2887 0-2.0568 0.75959-0.7596 0.7596-0.8621 1.8862h5.4623z"/>
    <path d="m1149 493.21h-0.085q-0.3585-0.0854-0.6999-0.11948-0.3328-0.0427-0.7937-0.0427-0.7425 0-1.4339 0.33286-0.6913 0.32432-1.3314 0.84494v6.7681h-1.6045v-9.5334h1.6045v1.4082q0.9559-0.76813 1.6814-1.0839 0.734-0.32432 1.4935-0.32432 0.4183 0 0.606 0.0256 0.1878 0.0171 0.5633 0.0768v1.6472z"/>
    <path d="m1166.1 497.37q0 0.74253-0.3499 1.468-0.3414 0.72546-0.9644 1.229-0.6828 0.54623-1.596 0.85348-0.9047 0.30725-2.1849 0.30725-1.3741 0-2.4751-0.25604-1.0925-0.25605-2.2276-0.7596v-2.1166h0.1195q0.9644 0.80226 2.2276 1.2375 1.2631 0.43527 2.3726 0.43527 1.5704 0 2.441-0.5889 0.8791-0.5889 0.8791-1.5704 0-0.84494-0.4182-1.2461-0.4097-0.40114-1.2547-0.62304-0.6401-0.1707-1.3911-0.28165-0.7425-0.11095-1.579-0.28165-1.6898-0.35846-2.5092-1.2205-0.8108-0.87055-0.8108-2.2617 0-1.596 1.3485-2.6116 1.3485-1.0242 3.4225-1.0242 1.3399 0 2.458 0.25604 1.118 0.25604 1.98 0.63157v1.9971h-0.1194q-0.7255-0.6145-1.9118-1.0156-1.1778-0.40967-2.4154-0.40967-1.357 0-2.1849 0.5633-0.8193 0.56329-0.8193 1.4509 0 0.79374 0.4097 1.2461 0.4096 0.45234 1.4423 0.69132 0.5463 0.11948 1.5534 0.29018 1.0071 0.17069 1.7069 0.34992 1.4168 0.37553 2.1337 1.1351 0.7169 0.75959 0.7169 2.1252z"/>
    <path d="m1173.6 500.91q-0.4523 0.11949-0.99 0.1963-0.5291 0.0768-0.9474 0.0768-1.4594 0-2.219-0.7852t-0.7596-2.5178v-5.0697h-1.0839v-1.3485h1.0839v-2.7397h1.6045v2.7397h3.3115v1.3485h-3.3115v4.3442q0 0.75106 0.034 1.1778 0.034 0.4182 0.239 0.7852 0.1877 0.34139 0.512 0.50355 0.3329 0.15363 1.0072 0.15363 0.3926 0 0.8193-0.11096 0.4267-0.11948 0.6145-0.19629h0.085v1.4424z"/>
    <path d="m1181.5 493.21h-0.085q-0.3585-0.0854-0.6999-0.11948-0.3328-0.0427-0.7937-0.0427-0.7425 0-1.4339 0.33286-0.6913 0.32432-1.3314 0.84494v6.7681h-1.6045v-9.5334h1.6045v1.4082q0.9559-0.76813 1.6814-1.0839 0.734-0.32432 1.4935-0.32432 0.4183 0 0.606 0.0256 0.1878 0.0171 0.5633 0.0768v1.6472z"/>
    <path d="m1190.4 500.99h-1.596v-1.0156q-0.2133 0.14509-0.5803 0.40967-0.3585 0.25604-0.6999 0.40967-0.4011 0.1963-0.9217 0.32432-0.5207 0.13656-1.2205 0.13656-1.2888 0-2.1849-0.85348-0.8962-0.85348-0.8962-2.1764 0-1.0839 0.4609-1.7496 0.4694-0.67425 1.3314-1.0583 0.8706-0.38407 2.0911-0.52062 1.2204-0.13656 2.6201-0.20484v-0.2475q0-0.54623-0.1963-0.90469-0.1877-0.35846-0.5462-0.5633-0.3414-0.1963-0.8193-0.26458-0.478-0.0683-0.9986-0.0683-0.6316 0-1.4082 0.17069-0.7767 0.16216-1.6046 0.47795h-0.085v-1.6301q0.4694-0.12802 1.357-0.28165t1.7496-0.15363q1.0071 0 1.7497 0.1707 0.751 0.16216 1.2972 0.56329 0.5377 0.3926 0.8194 1.0156 0.2816 0.62304 0.2816 1.5448v6.4694zm-1.596-2.3471v-2.6543q-0.734 0.0427-1.7325 0.12802-0.9901 0.0854-1.5704 0.24751-0.6913 0.1963-1.1181 0.6145-0.4267 0.40967-0.4267 1.1351 0 0.81934 0.495 1.2375 0.495 0.40967 1.5106 0.40967 0.845 0 1.5448-0.32432 0.6999-0.33286 1.2973-0.79373z"/>
    <path d="m1201.9 496.89q0 1.8264-1.1607 3.0725-1.1522 1.2376-3.0213 1.2376-0.3755 0-0.8706-0.0683-0.4864-0.0598-0.7937-0.1707v-1.4082h0.085q0.3585 0.20484 0.7767 0.28165 0.4268 0.0768 0.9047 0.0768 0.6316 0 1.101-0.24751 0.4694-0.2475 0.751-0.66571 0.2988-0.44381 0.4268-0.9815 0.1365-0.54622 0.1365-1.1949 0-1.4168-0.9046-2.1337-0.8962-0.72546-2.5861-0.72546v-1.2802q1.34 0 1.9972-0.50356 0.6571-0.51208 0.6571-1.6131 0-0.29872-0.094-0.58036-0.094-0.28165-0.35-0.54623-0.2304-0.24751-0.6059-0.3926-0.3756-0.15363-0.8962-0.15363-0.4865 0-0.8791 0.12803-0.3926 0.11948-0.734 0.45234-0.3158 0.30725-0.5121 0.87055-0.1877 0.56329-0.1877 1.3741v9.2773h-1.6046v-9.2176q0-1.0583 0.3073-1.835 0.3072-0.7852 0.8535-1.3144 0.5121-0.49502 1.2717-0.74253 0.7681-0.25604 1.5704-0.25604 1.5618 0 2.5348 0.74252 0.9815 0.74253 0.9815 2.0313 0 0.9559-0.606 1.7155t-1.5704 1.0327v0.0768q1.3997 0.31579 2.2105 1.2717 0.8108 0.94736 0.8108 2.3897z"/>
    <path d="m1212.3 496.39h-7.0242q0 0.87909 0.2646 1.5363 0.2646 0.64865 0.7255 1.0668 0.4438 0.40967 1.0497 0.61451 0.6146 0.20483 1.3485 0.20483 0.973 0 1.9545-0.38406 0.99-0.3926 1.4082-0.76813h0.085v1.7496q-0.8108 0.34139-1.6558 0.57183-0.8449 0.23043-1.7752 0.23043-2.3727 0-3.7041-1.2802-1.3314-1.2888-1.3314-3.6529 0-2.3385 1.2717-3.7126 1.2802-1.3741 3.3627-1.3741 1.9288 0 2.9701 1.1266 1.0498 1.1266 1.0498 3.2005v0.87054zm-1.5619-1.229q-0.01-1.2632-0.6401-1.9545-0.6231-0.69131-1.9033-0.69131-1.2887 0-2.0569 0.75959-0.7595 0.7596-0.862 1.8862h5.4623z"/>
   </g>
  </g>
 </g>
</svg>
