<?xml version="1.0" encoding="UTF-8"?>
<svg version="1.1" viewBox="0 0 123 123" xmlns="http://www.w3.org/2000/svg">
 <path d="m8 18.27h21l-1 35-10 5-10-40z" fill="#d69600"/>
 <path d="m10.25 20.033l8.9375 35.687 7.0937-3.531 0.9063-32.156h-16.938z" fill="#ffd543"/>
 <g fill="#5a5148">
  <path d="m18 98.275h105v5h-105v-5z"/>
  <path d="m18 98.275h10l-3 22h-25l18-22z"/>
 </g>
 <path d="m27 98.275l-3 19-7 2 7-21h3z" fill="#8d7c6a"/>
 <path d="m53 13.27s46.279-14.551 60 0c5 30 5 40 0 85.005h-50l-10-85.005z" fill="#a40000"/>
 <path d="m13.359 24.677l2.9095-0.277 3.7408 28.679-0.8313 0.762-5.819-29.164z" fill="#ffe791"/>
 <path d="m13 58.27c1.9454-2.213 4.3848-4.046 7.177-5.558 2.5582-1.386 5.4125-2.502 8.4543-3.393 2.8364-0.83099 5.8359-1.467 8.9104-1.944 2.98-0.46198 6.0304-0.77496 9.0713-0.97198 3.0776-0.19898 6.1453-0.27899 9.1201-0.27399 3.1801 0.005005 6.2539 0.10797 9.12 0.26502 3.3759 0.18396 6.4635 0.44598 9.0972 0.71399 5.5232 0.56396 9.0497 1.162 9.0497 1.162v50.005h-64.999s-2.3513-2.8799-4.8145-7.32c-1.2784-2.3-2.5871-5.02-3.6127-7.97-0.93731-2.7-1.6383-5.59-1.8641-8.54-0.22064-2.88 0.01258-5.806 0.9227-8.656 0.83268-2.608 2.2319-5.148 4.3686-7.519" fill="#a40000"/>
 <path d="m90.65 10.212c-2.9703 0.03302-5.9911 0.24097-8.9525 0.56-3.0638 0.33099-6.0641 0.78198-8.879 1.284-3.2333 0.57599-6.2221 1.219-8.7818 1.823-4.8251 1.141-8.1256 2.145-8.6657 2.309 0 0 0.3848 3.247 0.9032 7.622 0.2759 2.327 0.5895 4.974 0.9032 7.62 0.3137 2.647 0.6274 5.294 0.9032 7.621 0.5185 4.375 0.9033 7.622 0.9033 7.622 0.062897 0.60101-0.4856 1.191-1.093 1.177-2.6691-0.05603-5.6117-0.012024-8.6297 0.13599-2.8557 0.14099-5.7788 0.37701-8.6014 0.711-3.0194 0.35803-5.9237 0.83002-8.5074 1.422-2.1648 0.56299-4.3635 1.32-6.4667 2.215-2.1686 0.92297-4.2355 1.995-6.0588 3.155-2.1523 1.369-3.9652 2.861-5.205 4.379-1.6161 1.893-2.7709 3.596-3.5684 5.28-0.94101 1.986-1.3847 3.946-1.5018 6.16-0.10853 2.051 0.09152 4.141 0.5048 6.191 0.41105 2.05 1.033 4.06 1.7722 5.97 0.9932 2.57 2.1604 4.9 3.2745 6.87 2.0456 3.61 3.9121 5.99 4.1942 6.35 0 0 3.6941-0.02002 8.9609-0.050049 2.6744-0.019897 5.7542-0.039917 8.9617-0.059937 2.9509-0.02002 6.0098-0.030029 8.9607-0.050049 3.2071-0.02002 6.2864-0.039917 8.9604-0.059937 5.267-0.030029 8.9613-0.050049 8.9613-0.050049h47.605c0.351-3.15 0.675-6.12 0.974-8.93 0.336-3.18 0.64-6.14 0.91-8.94 0.308-3.19 0.573-6.16 0.794-8.949 0.254-3.201 0.451-6.167 0.591-8.964 0.159-3.176 0.244-6.136 0.255-8.979 0.012001-3.088-0.063004-6.039-0.225-8.979-0.163-2.951-0.414-5.891-0.75301-8.95-0.314-2.833-0.703-5.768-1.167-8.906-0.411-2.775-0.881-5.709-1.409-8.873-1.618-1.635-3.758-2.87-6.267-3.766-2.156-0.771-4.585-1.293-7.1894-1.605-2.3389-0.27997-4.8194-0.39197-7.3711-0.36395h-9.9e-5" fill="#ef292a"/>
 <g fill="#a40000">
  <path d="m86.5 16.939c-11.115 0.49902-22.438 4.406-22.438 4.406a1.1094 1.1094 0 0 0 -0.7188 1.188l2.9688 26.969a1.1094 1.1094 0 0 0 0.875 0.96802s7.9067 1.506 16.625 3.032c4.3591 0.76202 8.9243 1.551 12.812 2.125 3.8881 0.573 7.0521 0.93701 8.8441 0.93701a1.1094 1.1094 0 0 0 1.093 -1.094c0-4.897 0.711-11.944 0.782-18.406 0.035004-3.231-0.07-6.303-0.532-8.969-0.461-2.665-1.258-4.946-2.781-6.468-4.1325-4.133-10.864-4.987-17.531-4.688z"/>
  <path d="m76.663 1.3782c-14.438 2.91-28.204 10.224-35.948 20.845-1.0357 1.42-1.0791 2.939-0.9676 4.432 0.055798 0.74597 0.1372 1.452 0.619 2.222 0.2408 0.38501 0.6411 0.84601 1.265 1.073 0.6238 0.22699 1.3736 0.13501 1.8762-0.104 28.506-13.553 32.772-14.03 73.065-13.937 0.56 0.001038 1.211-0.20398 1.661-0.58197 0.449-0.37701 0.68401-0.84503 0.82-1.265 0.274-0.841 0.218-1.603 0.091003-2.341-0.254-1.476-0.688-2.912-2.123-3.959-10.687-7.793-25.921-9.293-40.358-6.384z"/>
 </g>
 <g fill="#d69600">
  <path d="m113 98.275c0 13.8-11.193 25-25 25s-25-11.2-25-25c0-13.81 11.193-25 25-25s25 11.19 25 25z"/>
  <path d="m60.5 105.78c0 9.66-7.835 17.5-17.5 17.5s-17.5-7.84-17.5-17.5c0-9.6699 7.835-17.5 17.5-17.5s17.5 7.83 17.5 17.5z"/>
 </g>
 <g fill="#ffd543">
  <path d="m88 76.925c-11.826 0-21.344 9.52-21.344 21.35 0 11.82 9.5178 21.34 21.344 21.34s21.344-9.52 21.344-21.34c0-11.83-9.5182-21.35-21.344-21.35z"/>
  <path d="m43 90.965c-8.2107 0-14.809 6.59-14.809 14.81 0 8.2101 6.5987 14.8 14.809 14.8 8.2107 0 14.809-6.59 14.809-14.8 0-8.22-6.5986-14.81-14.809-14.81z"/>
 </g>
 <path d="m86.625 18.564c-10.299 0.46198-20.705 3.926-21.656 4.25l2.9063 26.25c0.31731 0.060974 7.7282 1.478 16.25 2.969 4.351 0.76099 8.8852 1.523 12.75 2.094 3.6191 0.534 6.5471 0.862 8.1871 0.90601 0.038002-5.005 0.682-11.735 0.75-17.906 0.035004-3.177-0.097-6.184-0.531-8.688-0.434-2.503-1.175-4.487-2.312-5.625-3.5933-3.593-9.8703-4.54-16.344-4.25z" fill="#739fd0"/>
 <path d="m88 80.775c-9.7546 0-17.5 7.74-17.5 17.5 0 9.75 7.7454 17.5 17.5 17.5 9.7545 0 17.5-7.75 17.5-17.5 0-9.76-7.7456-17.5-17.5-17.5z" fill="#8d7c6a"/>
 <path d="m89.074 83.025c7.6957 0 13.883 6.19 13.883 13.88 0 0.82007-0.10001 1.63-0.234 2.41-0.356-8.32-7.1454-14.91-15.553-14.91-2.2989 0-4.4547 0.52002-6.4145 1.4 2.3155-1.73 5.1888-2.78 8.3184-2.78z" fill="#a8927a"/>
 <path d="m43 99.475c-3.6132 0-6.3 2.6799-6.3 6.2999 0 3.6101 2.6868 6.3 6.3 6.3 3.6131 0 6.3-2.6899 6.3-6.3 0-3.62-2.6869-6.2999-6.3-6.2999z" fill="#8d7c6a"/>
 <path d="m43.556 114.68c4.1017 0 7.3997-3.2999 7.3997-7.4 0-0.42993-0.053303-0.85998-0.1249-1.2799-0.1898 4.4299-3.8084 7.95-8.2895 7.95-1.2253 0-2.3744-0.28003-3.4189-0.75 1.2341 0.92004 2.7656 1.48 4.4336 1.48z" fill="#ffe791"/>
 <path d="m45.083 106.71l38.278-20.4 1.4932 2.35-38.278 20.39-1.4931-2.34z" fill="#312c29"/>
 <path d="m88.566 88.675c5.1149 0 9.2275 4.11 9.2275 9.22 0 0.54993-0.066399 1.08-0.1558 1.6-0.23669-5.53-4.7491-9.91-10.337-9.91-1.5279 0-2.9608 0.34998-4.2633 0.94 1.539-1.15 3.4487-1.85 5.5287-1.85z" fill="#a8927a"/>
 <g fill="#5a5148">
  <path d="m90.906 84.225c1.3721 2.65-1.1512 6.68-5.6359 9-4.4848 2.32-9.2327 2.06-10.605-0.59003-1.3721-2.65 1.1512-6.68 5.6359-9 4.4848-2.33 9.2327-2.06 10.605 0.59003z"/>
  <path d="m47.039 107.2c0.5724 1.0601-0.4145 2.7001-2.2042 3.67-1.7898 0.96997-3.7047 0.90002-4.2771-0.16003-0.5723-1.0599 0.4146-2.7 2.2043-3.67 1.7897-0.96997 3.7046-0.88989 4.277 0.16003z"/>
 </g>
 <path d="m42.133 23.264c14.762-20.245 53.589-28.857 73.833-14.094 1.347 0.982 2.275 4.966 0.609 4.962-40.312-0.09198-45.274 0.51599-73.834 14.095-1.5052 0.71497-1.5907-3.617-0.6087-4.963z" fill="#ef292a"/>
 <g fill="#8d7c6a">
  <path d="m20 98.275h2l-14 20-6 1 18-21z"/>
  <path d="m22 98.265l2 0.0099-8 19-6 2 12-21v-0.009888z"/>
 </g>
 <g fill="#97b8dc">
  <path d="m78.094 19.551c-2.4754 0.43097-4.7541 0.94397-6.7187 1.438l3 29.281c1.291 0.23798 2.9567 0.534 4.5 0.81299l-0.7813-31.532z"/>
  <path d="m80.312 19.176c-0.4218 0.060974-0.83569 0.12097-1.25 0.18799l0.8437 31.906c0.3086 0.05603 0.56 0.099976 0.875 0.15601l-0.4687-32.25z"/>
 </g>
 <path d="m6.5209 15.904l23.084-2.3409c1.3223-0.13403 2.4947 0.823 2.6288 2.145l0.5248 5.175c0.134 1.323-0.8225 2.4951-2.1448 2.629l-23.084 2.341c-1.3223 0.13397-2.4947-0.823-2.6288-2.145l-0.5248-5.176c-0.13407-1.322 0.8225-2.494 2.1448-2.628z" fill="#d69600"/>
 <path d="m6.6759 17.377c-0.55843 0.057007-0.89561 0.461-0.8413 0.99603l0.5264 5.192c0.05431 0.53601 0.49169 0.893 1.0273 0.83899l23.069-2.34c0.5356-0.054016 0.8925-0.49103 0.8382-1.027l-0.5265-5.192c-0.0543-0.53601-0.4657-0.86401-1.0241-0.80701l-23.069 2.339z" fill="#ffe791"/>
 <g fill="#f46e6f">
  <path d="m46.395 54.789c1.0372 3.354-4.6215 8.083-12.639 10.562-8.0176 2.479-15.358 1.77-16.395-1.584-1.0372-3.354 4.6215-8.083 12.639-10.563 8.0175-2.479 15.358-1.77 16.395 1.585z"/>
  <path d="m62.11 11.103c-1.0935-1.396 3.7959-4.018 10.921-5.858 7.1249-1.839 13.787-2.198 14.881-0.802 1.0935 1.3961-3.7959 4.018-10.921 5.858-7.1249 1.839-13.787 2.198-14.881 0.802z"/>
 </g>
 <g fill="#312c29">
  <path d="m88 95.025c-2.0533 0-3.25 1.19-3.25 3.2499 0 2.05 1.1967 3.25 3.25 3.25 2.0532 0 3.25-1.2 3.25-3.25 0-2.0599-1.1968-3.2499-3.25-3.2499z"/>
  <path d="m43 104.77c-0.5791 0-1.0097 0.42993-1.0097 1.0099 0 0.57007 0.4306 1 1.0097 1 0.579 0 1.0097-0.42993 1.0097-1 0-0.57996-0.4307-1.0099-1.0097-1.0099z"/>
 </g>
 <g fill="#ffd543">
  <path d="m25.003 22.595l4.125-0.406-0.7187-7.031-4.125 0.406 0.7187 7.031z"/>
  <path d="m23.409 22.752l0.9687-0.094-0.625-7.031-0.9687 0.093 0.625 7.032z"/>
 </g>
 <g fill="#ffe791">
  <path d="m41.169 93.945c-5.5279 0-9.9727 4.4501-9.9727 9.98 0 0.58008 0.0718 1.16 0.1683 1.7201 0.2559-5.9701 5.1327-10.71 11.172-10.71 1.6514 0 3.1999 0.38 4.6077 1.01-1.6633-1.24-3.7272-2-5.9753-2z"/>
  <path d="m43.628 118.15c5.528 0 9.9728-4.4401 9.9728-9.9701 0-0.58997-0.0718-1.1699-0.1684-1.73-0.2558 5.98-5.1327 10.71-11.172 10.71-1.6513 0-3.1999-0.37-4.6076-1.0099 1.6632 1.25 3.7272 2 5.9752 2z"/>
 </g>
 <path d="m87.728 113.13c-7.6957 0-13.883-6.1901-13.883-13.89 0-0.82007 0.099907-1.62 0.23431-2.4 0.35619 8.32 7.1454 14.91 15.553 14.91 2.2989 0 4.4547-0.52002 6.4145-1.41-2.3155 1.74-5.1888 2.79-8.3184 2.79z" fill="#a8927a"/>
 <path d="m42.016 97.025c-4.1018 0-7.3998 3.3-7.3998 7.4 0 0.43005 0.053299 0.85998 0.1249 1.28 0.1899-4.43 3.8085-7.95 8.2896-7.95 1.2253 0 2.3743 0.27991 3.4188 0.75-1.2341-0.92004-2.7655-1.4801-4.4335-1.4801z" fill="#ffe791"/>
 <path d="m88.255 107.99c-5.1148 0-9.2274-4.11-9.2274-9.23 0-0.54004 0.066406-1.0801 0.1557-1.6001 0.2368 5.53 4.7491 9.91 10.337 9.91 1.5279 0 2.9608-0.33997 4.2633-0.92993-1.539 1.1499-3.4487 1.85-5.5287 1.85z" fill="#a8927a"/>
 <path d="m58.238 51.591c1.9461 5.16 3.1892 11.262 3.4867 17.838 0.319 7.056-0.5086 13.666-2.2051 19.226 2.9748-4.33 4.7093-11.28 4.3575-19.061-0.3357-7.421-2.5275-13.908-5.6391-18.003z" fill="#cc0001"/>
</svg>
